<svg width="872" height="744" viewBox="0 0 872 744" fill="none" xmlns="http://www.w3.org/2000/svg">
<path d="M872 0H0L221.312 618.425C248.226 693.636 315.723 743.3 391.021 743.3H872V0Z" fill="url(#paint0_linear)"/>
<path d="M872 743V681.417L256.757 679.99C290.607 718.39 337.826 743 391.021 743H872Z" fill="url(#paint1_linear)"/>
<ellipse opacity="0.2" cx="537.459" cy="699.933" rx="16.618" ry="3.782" fill="white"/>
<ellipse opacity="0.2" cx="455.25" cy="722.258" rx="11.443" ry="2.605" fill="white"/>
<ellipse opacity="0.2" cx="361.794" cy="707.603" rx="4.179" ry="0.951" fill="white"/>
<ellipse opacity="0.2" cx="501.57" cy="724.862" rx="4.179" ry="0.951" fill="white"/>
<ellipse opacity="0.2" cx="566.432" cy="724.862" rx="14.165" ry="3.224" fill="white"/>
<ellipse opacity="0.2" cx="388.192" cy="732.179" rx="10.647" ry="2.424" fill="white"/>
<ellipse opacity="0.2" cx="437.244" cy="699.934" rx="12.721" ry="2.896" fill="white"/>
<ellipse opacity="0.2" cx="679.84" cy="696.765" rx="16.618" ry="3.782" fill="white"/>
<ellipse opacity="0.2" cx="762.047" cy="719.09" rx="11.443" ry="2.605" fill="white"/>
<ellipse opacity="0.2" cx="855.503" cy="704.435" rx="4.179" ry="0.951" fill="white"/>
<ellipse opacity="0.2" cx="715.727" cy="721.694" rx="4.179" ry="0.951" fill="white"/>
<ellipse opacity="0.2" cx="650.866" cy="721.694" rx="14.165" ry="3.224" fill="white"/>
<ellipse opacity="0.2" cx="829.105" cy="729.011" rx="10.647" ry="2.424" fill="white"/>
<ellipse opacity="0.2" cx="780.053" cy="696.766" rx="12.721" ry="2.896" fill="white"/>
<path opacity="0.2" d="M376.333 188C329 203.333 263 167 187 185C137.312 196.768 104.725 239.748 88.115 268.1L153.4 438.687C153.4 438.681 132.873 220.611 305.192 220.387C477.511 220.163 397.239 145 501.905 145H440.5C440.5 145 423.667 172.667 376.333 188Z" fill="white"/>
<path opacity="0.2" d="M513.588 145H530C530 145 569.177 191.5 652.667 178C736.157 164.5 677.819 243.68 728.19 263.391C778.561 283.102 786.061 205.675 823.559 220.391C861.057 235.107 872 220.391 872 220.391V340.643C872 340.643 845.43 346.407 832.215 307.704C819 269.001 780.38 322.404 728.19 307.704C676 293.004 711.148 212 642.574 212C574 212 585.333 196.667 554 176C522.667 155.333 513.588 145 513.588 145Z" fill="white"/>
<path d="M469.387 127.754V234.641C554.022 242.927 619.533 312.446 622.782 397.424C626.032 482.402 566.022 556.721 482.267 571.446C398.512 586.171 316.751 536.776 290.822 455.786C290.811 455.761 290.804 455.734 290.802 455.707C290.168 453.746 289.574 451.771 289.019 449.783C288.484 447.841 287.969 445.87 287.493 443.898C287.384 443.452 287.275 443.006 287.176 442.561C286.928 441.511 286.7 440.461 286.476 439.411C286.308 438.599 286.139 437.786 285.976 436.964C285.776 435.993 285.6 435.022 285.421 434.041C285.282 433.248 285.144 432.456 285.015 431.663C284.915 431.069 284.827 430.484 284.738 429.89C284.629 429.167 284.52 428.444 284.421 427.72C284.362 427.32 284.312 426.927 284.263 426.531C284.163 425.808 284.063 425.094 283.986 424.371C283.857 423.351 283.748 422.33 283.649 421.3C283.6 420.884 283.56 420.468 283.52 420.042C283.441 419.15 283.362 418.249 283.292 417.357C283.203 416.267 283.124 415.168 283.064 414.068V413.989C283.014 413.137 282.964 412.289 282.935 411.433C282.915 411.126 282.905 410.819 282.895 410.512C282.865 409.789 282.836 409.056 282.826 408.323C282.806 407.818 282.796 407.323 282.796 406.817C282.776 405.856 282.766 404.895 282.766 403.934C282.704 359.812 299.849 317.404 330.558 285.723L255.207 210.364C204.482 262.014 176.104 331.54 176.198 403.933C176.198 406.152 176.224 408.362 176.277 410.561C176.297 411.661 176.337 412.761 176.377 413.861C176.407 414.733 176.436 415.605 176.477 416.476C176.497 416.833 176.507 417.189 176.526 417.546C176.556 418.2 176.595 418.854 176.635 419.508C176.685 420.419 176.735 421.331 176.804 422.232C176.844 422.945 176.893 423.668 176.943 424.392C176.983 424.937 177.022 425.482 177.072 426.017C177.141 426.917 177.221 427.83 177.3 428.732C177.379 429.673 177.468 430.614 177.567 431.546C177.646 432.398 177.735 433.246 177.825 434.102C177.915 434.958 178.013 435.816 178.125 436.668C178.244 437.748 178.383 438.818 178.525 439.888C178.667 440.958 178.812 442.028 178.961 443.088C179.566 447.355 180.266 451.588 181.061 455.788C205.323 583.797 317.798 680.599 452.871 680.599C605.671 680.599 729.535 556.731 729.535 403.935C729.528 256.674 614.496 136.294 469.387 127.754Z" fill="#EAF5FF"/>
<path d="M289.019 449.783C288.484 447.841 287.969 445.87 287.493 443.898C287.384 443.452 287.275 443.006 287.176 442.561C286.928 441.511 286.7 440.461 286.476 439.411C286.308 438.599 286.139 437.786 285.976 436.964C285.776 435.993 285.6 435.022 285.421 434.041C285.282 433.248 285.144 432.456 285.015 431.663C284.915 431.069 284.827 430.484 284.738 429.89C284.629 429.167 284.52 428.444 284.421 427.72C284.362 427.32 284.302 426.927 284.263 426.531C284.154 425.818 284.063 425.094 283.986 424.371C283.857 423.351 283.748 422.33 283.649 421.3C283.6 420.884 283.56 420.468 283.52 420.042C283.431 419.15 283.362 418.259 283.292 417.357C283.203 416.267 283.124 415.168 283.064 414.068V413.989C283.005 413.137 282.964 412.289 282.935 411.433C282.915 411.126 282.905 410.819 282.895 410.512C282.865 409.789 282.836 409.056 282.826 408.323C282.806 407.823 282.796 407.323 282.796 406.817C282.776 405.856 282.766 404.895 282.766 403.934C282.704 359.812 299.849 317.404 330.558 285.723L255.207 210.369C204.483 262.018 176.105 331.542 176.198 403.933C176.198 406.152 176.224 408.362 176.277 410.561C176.297 411.661 176.337 412.761 176.377 413.861C176.407 414.733 176.436 415.605 176.477 416.477C176.497 416.834 176.507 417.19 176.526 417.547C176.556 418.201 176.595 418.855 176.635 419.509C176.685 420.42 176.735 421.332 176.804 422.233C176.844 422.946 176.893 423.67 176.943 424.393C176.983 424.938 177.022 425.483 177.072 426.018C177.141 426.918 177.221 427.831 177.3 428.733C177.379 429.674 177.468 430.605 177.567 431.547C177.646 432.399 177.735 433.247 177.825 434.103C177.915 434.959 178.013 435.817 178.125 436.669C178.244 437.749 178.383 438.819 178.525 439.889C178.667 440.959 178.812 442.029 178.961 443.089C179.566 447.356 180.266 451.589 181.061 455.789H290.831C290.82 455.764 290.813 455.737 290.811 455.71C290.169 453.745 289.584 451.774 289.019 449.783Z" fill="#ACD4F3"/>
<path d="M342.917 274.153C373.607 248.072 412.584 233.778 452.859 233.835V127.263C384.316 127.167 318.195 152.612 267.4 198.634L342.917 274.153Z" fill="#FED300"/>
<g clip-path="url(#clip0)">
<path d="M232.303 315.5V320.367H215.408V316.523L223.53 308.928C224.315 308.184 224.842 307.554 225.111 307.037C225.38 306.5 225.514 305.962 225.514 305.425C225.514 304.722 225.276 304.175 224.801 303.782C224.326 303.389 223.633 303.193 222.724 303.193C221.918 303.193 221.174 303.379 220.492 303.751C219.831 304.102 219.283 304.619 218.849 305.301L214.292 302.759C215.139 301.354 216.328 300.248 217.857 299.442C219.386 298.636 221.195 298.233 223.282 298.233C224.935 298.233 226.392 298.502 227.653 299.039C228.934 299.576 229.926 300.351 230.629 301.364C231.352 302.356 231.714 303.513 231.714 304.836C231.714 306.014 231.456 307.13 230.939 308.184C230.443 309.217 229.472 310.395 228.025 311.718L223.933 315.5H232.303ZM242.212 306.572C245.25 306.572 247.492 307.192 248.939 308.432C250.406 309.672 251.14 311.325 251.14 313.392C251.14 314.735 250.788 315.975 250.086 317.112C249.404 318.228 248.35 319.127 246.924 319.809C245.518 320.47 243.772 320.801 241.685 320.801C240.155 320.801 238.636 320.615 237.128 320.243C235.64 319.871 234.358 319.344 233.284 318.662L235.485 314.043C236.353 314.622 237.303 315.066 238.337 315.376C239.391 315.686 240.445 315.841 241.499 315.841C242.553 315.841 243.39 315.645 244.01 315.252C244.65 314.839 244.971 314.27 244.971 313.547C244.971 312.824 244.661 312.276 244.041 311.904C243.421 311.532 242.325 311.346 240.755 311.346H234.865L235.95 298.667H249.776V303.41H241.034L240.755 306.572H242.212ZM271.83 303.565V317.298C271.83 320.419 270.982 322.754 269.288 324.304C267.593 325.875 265.154 326.66 261.972 326.66C260.318 326.66 258.768 326.474 257.322 326.102C255.875 325.73 254.645 325.182 253.633 324.459L255.772 320.336C256.454 320.894 257.311 321.328 258.345 321.638C259.399 321.969 260.432 322.134 261.445 322.134C262.995 322.134 264.131 321.793 264.855 321.111C265.578 320.429 265.94 319.416 265.94 318.073V317.515C264.803 318.838 263.139 319.499 260.949 319.499C259.461 319.499 258.086 319.168 256.826 318.507C255.565 317.825 254.563 316.874 253.819 315.655C253.075 314.415 252.703 312.989 252.703 311.377C252.703 309.786 253.075 308.38 253.819 307.161C254.563 305.921 255.565 304.97 256.826 304.309C258.086 303.627 259.461 303.286 260.949 303.286C263.346 303.286 265.103 304.061 266.219 305.611V303.565H271.83ZM262.344 314.818C263.398 314.818 264.266 314.498 264.948 313.857C265.65 313.216 266.002 312.39 266.002 311.377C266.002 310.364 265.661 309.548 264.979 308.928C264.297 308.287 263.418 307.967 262.344 307.967C261.269 307.967 260.38 308.287 259.678 308.928C258.996 309.548 258.655 310.364 258.655 311.377C258.655 312.39 259.006 313.216 259.709 313.857C260.411 314.498 261.29 314.818 262.344 314.818Z" fill="#4099F1"/>
<g clip-path="url(#clip1)">
<path d="M221.576 359.556C220.316 359.556 219.189 359.304 218.195 358.8C217.201 358.296 216.424 357.596 215.864 356.7C215.318 355.804 215.045 354.789 215.045 353.655C215.045 352.521 215.318 351.513 215.864 350.631C216.424 349.735 217.201 349.042 218.195 348.552C219.189 348.048 220.316 347.796 221.576 347.796C222.864 347.796 223.977 348.076 224.915 348.636C225.853 349.182 226.518 349.945 226.91 350.925L223.823 352.5C223.305 351.478 222.549 350.967 221.555 350.967C220.841 350.967 220.246 351.205 219.77 351.681C219.308 352.157 219.077 352.815 219.077 353.655C219.077 354.509 219.308 355.181 219.77 355.671C220.246 356.147 220.841 356.385 221.555 356.385C222.549 356.385 223.305 355.874 223.823 354.852L226.91 356.427C226.518 357.407 225.853 358.177 224.915 358.737C223.977 359.283 222.864 359.556 221.576 359.556ZM233.263 347.796C235.153 347.796 236.595 348.23 237.589 349.098C238.583 349.952 239.08 351.268 239.08 353.046V359.367H235.363V357.897C234.789 359.003 233.669 359.556 232.003 359.556C231.121 359.556 230.358 359.402 229.714 359.094C229.07 358.786 228.58 358.373 228.244 357.855C227.922 357.323 227.761 356.721 227.761 356.049C227.761 354.971 228.174 354.138 229 353.55C229.826 352.948 231.1 352.647 232.822 352.647H235.09C235.02 351.443 234.215 350.841 232.675 350.841C232.129 350.841 231.576 350.932 231.016 351.114C230.456 351.282 229.98 351.52 229.588 351.828L228.244 349.119C228.874 348.699 229.637 348.377 230.533 348.153C231.443 347.915 232.353 347.796 233.263 347.796ZM233.116 357.036C233.578 357.036 233.984 356.924 234.334 356.7C234.684 356.476 234.936 356.147 235.09 355.713V354.726H233.368C232.206 354.726 231.625 355.111 231.625 355.881C231.625 356.231 231.758 356.511 232.024 356.721C232.29 356.931 232.654 357.036 233.116 357.036ZM245.4 349.35C245.806 348.832 246.331 348.447 246.975 348.195C247.633 347.929 248.382 347.796 249.222 347.796V351.387C248.858 351.345 248.557 351.324 248.319 351.324C247.465 351.324 246.793 351.555 246.303 352.017C245.827 352.479 245.589 353.186 245.589 354.138V359.367H241.599V347.985H245.4V349.35ZM258.029 347.796C259.065 347.796 260.003 348.034 260.843 348.51C261.697 348.986 262.369 349.672 262.859 350.568C263.363 351.45 263.615 352.479 263.615 353.655C263.615 354.831 263.363 355.867 262.859 356.763C262.369 357.659 261.697 358.352 260.843 358.842C260.003 359.318 259.065 359.556 258.029 359.556C256.531 359.556 255.411 359.115 254.669 358.233V359.367H250.868V343.785H254.858V348.972C255.628 348.188 256.685 347.796 258.029 347.796ZM257.189 356.385C257.889 356.385 258.463 356.147 258.911 355.671C259.359 355.181 259.583 354.509 259.583 353.655C259.583 352.815 259.359 352.157 258.911 351.681C258.463 351.205 257.889 350.967 257.189 350.967C256.489 350.967 255.915 351.205 255.467 351.681C255.019 352.157 254.795 352.815 254.795 353.655C254.795 354.509 255.019 355.181 255.467 355.671C255.915 356.147 256.489 356.385 257.189 356.385ZM269.607 359.556C268.655 359.556 267.717 359.451 266.793 359.241C265.869 359.017 265.127 358.73 264.567 358.38L265.764 355.65C266.282 355.972 266.898 356.231 267.612 356.427C268.326 356.609 269.033 356.7 269.733 356.7C270.377 356.7 270.832 356.637 271.098 356.511C271.378 356.371 271.518 356.175 271.518 355.923C271.518 355.671 271.35 355.496 271.014 355.398C270.692 355.286 270.174 355.181 269.46 355.083C268.55 354.971 267.773 354.824 267.129 354.642C266.499 354.46 265.953 354.124 265.491 353.634C265.029 353.144 264.798 352.458 264.798 351.576C264.798 350.848 265.015 350.204 265.449 349.644C265.883 349.07 266.513 348.622 267.339 348.3C268.179 347.964 269.18 347.796 270.342 347.796C271.168 347.796 271.987 347.88 272.799 348.048C273.611 348.216 274.29 348.454 274.836 348.762L273.639 351.471C272.631 350.911 271.539 350.631 270.363 350.631C269.733 350.631 269.271 350.708 268.977 350.862C268.683 351.002 268.536 351.191 268.536 351.429C268.536 351.695 268.697 351.884 269.019 351.996C269.341 352.094 269.873 352.199 270.615 352.311C271.553 352.451 272.33 352.612 272.946 352.794C273.562 352.976 274.094 353.312 274.542 353.802C275.004 354.278 275.235 354.95 275.235 355.818C275.235 356.532 275.018 357.176 274.584 357.75C274.15 358.31 273.506 358.751 272.652 359.073C271.812 359.395 270.797 359.556 269.607 359.556Z" fill="#4099F1"/>
</g>
</g>
<g clip-path="url(#clip2)">
<path d="M343.995 194.849C342.195 194.849 340.595 194.419 339.195 193.559C337.795 192.699 336.695 191.449 335.895 189.809C335.115 188.149 334.725 186.189 334.725 183.929C334.725 181.669 335.115 179.719 335.895 178.079C336.695 176.419 337.795 175.159 339.195 174.299C340.595 173.439 342.195 173.009 343.995 173.009C345.775 173.009 347.365 173.439 348.765 174.299C350.165 175.159 351.255 176.419 352.035 178.079C352.835 179.719 353.235 181.669 353.235 183.929C353.235 186.189 352.835 188.149 352.035 189.809C351.255 191.449 350.165 192.699 348.765 193.559C347.365 194.419 345.775 194.849 343.995 194.849ZM343.995 189.989C344.995 189.989 345.785 189.509 346.365 188.549C346.965 187.569 347.265 186.029 347.265 183.929C347.265 181.829 346.965 180.299 346.365 179.339C345.785 178.359 344.995 177.869 343.995 177.869C342.975 177.869 342.165 178.359 341.565 179.339C340.985 180.299 340.695 181.829 340.695 183.929C340.695 186.029 340.985 187.569 341.565 188.549C342.165 189.509 342.975 189.989 343.995 189.989ZM358.062 194.699C357.102 194.699 356.292 194.379 355.632 193.739C354.972 193.099 354.642 192.289 354.642 191.309C354.642 190.309 354.962 189.499 355.602 188.879C356.262 188.259 357.082 187.949 358.062 187.949C359.062 187.949 359.882 188.259 360.522 188.879C361.162 189.499 361.482 190.309 361.482 191.309C361.482 192.289 361.152 193.099 360.492 193.739C359.852 194.379 359.042 194.699 358.062 194.699ZM374.411 181.829C376.151 182.189 377.481 182.909 378.401 183.989C379.341 185.049 379.811 186.339 379.811 187.859C379.811 189.099 379.471 190.249 378.791 191.309C378.131 192.369 377.111 193.229 375.731 193.889C374.371 194.529 372.681 194.849 370.661 194.849C369.181 194.849 367.711 194.669 366.251 194.309C364.811 193.949 363.561 193.439 362.501 192.779L364.661 188.309C365.481 188.869 366.401 189.299 367.421 189.599C368.461 189.899 369.481 190.049 370.481 190.049C371.501 190.049 372.311 189.859 372.911 189.479C373.511 189.099 373.811 188.559 373.811 187.859C373.811 186.499 372.741 185.819 370.601 185.819H368.111V182.069L371.861 178.019H363.581V173.429H378.761V177.149L374.411 181.829ZM400.017 178.169V191.459C400.017 194.479 399.197 196.739 397.557 198.239C395.917 199.759 393.557 200.519 390.477 200.519C388.877 200.519 387.377 200.339 385.977 199.979C384.577 199.619 383.387 199.089 382.407 198.389L384.477 194.399C385.137 194.939 385.967 195.359 386.967 195.659C387.987 195.979 388.987 196.139 389.967 196.139C391.467 196.139 392.567 195.809 393.267 195.149C393.967 194.489 394.317 193.509 394.317 192.209V191.669C393.217 192.949 391.607 193.589 389.487 193.589C388.047 193.589 386.717 193.269 385.497 192.629C384.277 191.969 383.307 191.049 382.587 189.869C381.867 188.669 381.507 187.289 381.507 185.729C381.507 184.189 381.867 182.829 382.587 181.649C383.307 180.449 384.277 179.529 385.497 178.889C386.717 178.229 388.047 177.899 389.487 177.899C391.807 177.899 393.507 178.649 394.587 180.149V178.169H400.017ZM390.837 189.059C391.857 189.059 392.697 188.749 393.357 188.129C394.037 187.509 394.377 186.709 394.377 185.729C394.377 184.749 394.047 183.959 393.387 183.359C392.727 182.739 391.877 182.429 390.837 182.429C389.797 182.429 388.937 182.739 388.257 183.359C387.597 183.959 387.267 184.749 387.267 185.729C387.267 186.709 387.607 187.509 388.287 188.129C388.967 188.749 389.817 189.059 390.837 189.059Z" fill="#D19500"/>
<g clip-path="url(#clip3)">
<path d="M340.137 217.901H343.233V221.309H340.257V230.429H335.697V221.309H333.801V217.901H335.697V217.565C335.697 215.981 336.169 214.725 337.113 213.797C338.073 212.869 339.409 212.405 341.121 212.405C341.697 212.405 342.257 212.461 342.801 212.573C343.345 212.685 343.793 212.853 344.145 213.077L343.017 216.293C342.569 216.037 342.113 215.909 341.649 215.909C341.169 215.909 340.793 216.053 340.521 216.341C340.265 216.629 340.137 217.053 340.137 217.613V217.901ZM350.229 217.205C352.389 217.205 354.037 217.701 355.173 218.693C356.309 219.669 356.877 221.173 356.877 223.205V230.429H352.629V228.749C351.973 230.013 350.693 230.645 348.789 230.645C347.781 230.645 346.909 230.469 346.173 230.117C345.437 229.765 344.877 229.293 344.493 228.701C344.125 228.093 343.941 227.405 343.941 226.637C343.941 225.405 344.413 224.453 345.357 223.781C346.301 223.093 347.757 222.749 349.725 222.749H352.317C352.237 221.373 351.317 220.685 349.557 220.685C348.933 220.685 348.301 220.789 347.661 220.997C347.021 221.189 346.477 221.461 346.029 221.813L344.493 218.717C345.213 218.237 346.085 217.869 347.109 217.613C348.149 217.341 349.189 217.205 350.229 217.205ZM350.061 227.765C350.589 227.765 351.053 227.637 351.453 227.381C351.853 227.125 352.141 226.749 352.317 226.253V225.125H350.349C349.021 225.125 348.357 225.565 348.357 226.445C348.357 226.845 348.509 227.165 348.813 227.405C349.117 227.645 349.533 227.765 350.061 227.765ZM368.731 229.901C368.347 230.141 367.875 230.325 367.315 230.453C366.771 230.581 366.187 230.645 365.563 230.645C363.867 230.645 362.563 230.229 361.651 229.397C360.739 228.565 360.283 227.325 360.283 225.677V221.309H358.387V217.901H360.283V214.517H364.843V217.901H367.819V221.309H364.843V225.629C364.843 226.093 364.963 226.461 365.203 226.733C365.459 226.989 365.795 227.117 366.211 227.117C366.739 227.117 367.203 226.981 367.603 226.709L368.731 229.901Z" fill="#D19500"/>
</g>
</g>
<g clip-path="url(#clip4)">
<path d="M562.558 190.131C567.189 190.131 570.838 191.496 573.506 194.225C576.174 196.954 577.508 200.88 577.508 206.001C577.508 209.681 576.787 212.855 575.346 215.523C573.935 218.16 571.927 220.169 569.32 221.549C566.744 222.929 563.754 223.619 560.35 223.619C558.541 223.619 556.808 223.404 555.152 222.975C553.496 222.576 552.085 222.009 550.92 221.273L554.232 214.741C555.796 215.845 557.774 216.397 560.166 216.397C562.466 216.397 564.321 215.768 565.732 214.511C567.173 213.223 568.017 211.368 568.262 208.945C566.422 210.509 564.015 211.291 561.04 211.291C559.016 211.291 557.161 210.877 555.474 210.049C553.787 209.19 552.438 207.994 551.426 206.461C550.445 204.897 549.954 203.118 549.954 201.125C549.954 198.948 550.506 197.031 551.61 195.375C552.745 193.688 554.263 192.4 556.164 191.511C558.096 190.591 560.227 190.131 562.558 190.131ZM563.202 204.759C564.521 204.759 565.594 204.391 566.422 203.655C567.25 202.888 567.664 201.892 567.664 200.665C567.664 199.469 567.25 198.503 566.422 197.767C565.625 197 564.536 196.617 563.156 196.617C561.868 196.617 560.81 196.985 559.982 197.721C559.185 198.457 558.786 199.454 558.786 200.711C558.786 201.938 559.185 202.919 559.982 203.655C560.81 204.391 561.883 204.759 563.202 204.759ZM592.707 202.505C597.215 202.505 600.542 203.425 602.689 205.265C604.866 207.105 605.955 209.558 605.955 212.625C605.955 214.618 605.434 216.458 604.391 218.145C603.379 219.801 601.815 221.135 599.699 222.147C597.614 223.128 595.022 223.619 591.925 223.619C589.656 223.619 587.402 223.343 585.163 222.791C582.955 222.239 581.054 221.457 579.459 220.445L582.725 213.591C584.013 214.45 585.424 215.109 586.957 215.569C588.521 216.029 590.085 216.259 591.649 216.259C593.213 216.259 594.455 215.968 595.375 215.385C596.326 214.772 596.801 213.928 596.801 212.855C596.801 211.782 596.341 210.969 595.421 210.417C594.501 209.865 592.876 209.589 590.545 209.589H581.805L583.415 190.775H603.931V197.813H590.959L590.545 202.505H592.707Z" fill="#8F9BC1"/>
<g clip-path="url(#clip5)">
<path d="M554.288 250.11C553.388 250.11 552.583 249.93 551.873 249.57C551.163 249.21 550.608 248.71 550.208 248.07C549.818 247.43 549.623 246.705 549.623 245.895C549.623 245.085 549.818 244.365 550.208 243.735C550.608 243.095 551.163 242.6 551.873 242.25C552.583 241.89 553.388 241.71 554.288 241.71C555.208 241.71 556.003 241.91 556.673 242.31C557.343 242.7 557.818 243.245 558.098 243.945L555.893 245.07C555.523 244.34 554.983 243.975 554.273 243.975C553.763 243.975 553.338 244.145 552.998 244.485C552.668 244.825 552.503 245.295 552.503 245.895C552.503 246.505 552.668 246.985 552.998 247.335C553.338 247.675 553.763 247.845 554.273 247.845C554.983 247.845 555.523 247.48 555.893 246.75L558.098 247.875C557.818 248.575 557.343 249.125 556.673 249.525C556.003 249.915 555.208 250.11 554.288 250.11ZM562.636 241.71C563.986 241.71 565.016 242.02 565.726 242.64C566.436 243.25 566.791 244.19 566.791 245.46V249.975H564.136V248.925C563.726 249.715 562.926 250.11 561.736 250.11C561.106 250.11 560.561 250 560.101 249.78C559.641 249.56 559.291 249.265 559.051 248.895C558.821 248.515 558.706 248.085 558.706 247.605C558.706 246.835 559.001 246.24 559.591 245.82C560.181 245.39 561.091 245.175 562.321 245.175H563.941C563.891 244.315 563.316 243.885 562.216 243.885C561.826 243.885 561.431 243.95 561.031 244.08C560.631 244.2 560.291 244.37 560.011 244.59L559.051 242.655C559.501 242.355 560.046 242.125 560.686 241.965C561.336 241.795 561.986 241.71 562.636 241.71ZM562.531 248.31C562.861 248.31 563.151 248.23 563.401 248.07C563.651 247.91 563.831 247.675 563.941 247.365V246.66H562.711C561.881 246.66 561.466 246.935 561.466 247.485C561.466 247.735 561.561 247.935 561.751 248.085C561.941 248.235 562.201 248.31 562.531 248.31ZM568.59 238.845H571.44V249.975H568.59V238.845ZM577.372 250.11C576.502 250.11 575.717 249.93 575.017 249.57C574.317 249.21 573.767 248.71 573.367 248.07C572.977 247.43 572.782 246.705 572.782 245.895C572.782 245.095 572.977 244.375 573.367 243.735C573.767 243.095 574.312 242.6 575.002 242.25C575.702 241.89 576.492 241.71 577.372 241.71C578.252 241.71 579.042 241.89 579.742 242.25C580.442 242.6 580.987 243.095 581.377 243.735C581.767 244.365 581.962 245.085 581.962 245.895C581.962 246.705 581.767 247.43 581.377 248.07C580.987 248.71 580.442 249.21 579.742 249.57C579.042 249.93 578.252 250.11 577.372 250.11ZM577.372 247.845C577.872 247.845 578.282 247.675 578.602 247.335C578.922 246.985 579.082 246.505 579.082 245.895C579.082 245.295 578.922 244.825 578.602 244.485C578.282 244.145 577.872 243.975 577.372 243.975C576.872 243.975 576.462 244.145 576.142 244.485C575.822 244.825 575.662 245.295 575.662 245.895C575.662 246.505 575.822 246.985 576.142 247.335C576.462 247.675 576.872 247.845 577.372 247.845ZM585.997 242.82C586.287 242.45 586.662 242.175 587.122 241.995C587.592 241.805 588.127 241.71 588.727 241.71V244.275C588.467 244.245 588.252 244.23 588.082 244.23C587.472 244.23 586.992 244.395 586.642 244.725C586.302 245.055 586.132 245.56 586.132 246.24V249.975H583.282V241.845H585.997V242.82ZM589.904 241.845H592.754V249.975H589.904V241.845ZM591.329 240.945C590.809 240.945 590.389 240.8 590.069 240.51C589.749 240.22 589.589 239.86 589.589 239.43C589.589 239 589.749 238.64 590.069 238.35C590.389 238.06 590.809 237.915 591.329 237.915C591.849 237.915 592.269 238.055 592.589 238.335C592.909 238.605 593.069 238.955 593.069 239.385C593.069 239.835 592.909 240.21 592.589 240.51C592.269 240.8 591.849 240.945 591.329 240.945ZM602.916 245.925C602.916 245.945 602.901 246.18 602.871 246.63H596.961C597.081 247.05 597.311 247.375 597.651 247.605C598.001 247.825 598.436 247.935 598.956 247.935C599.346 247.935 599.681 247.88 599.961 247.77C600.251 247.66 600.541 247.48 600.831 247.23L602.331 248.79C601.541 249.67 600.386 250.11 598.866 250.11C597.916 250.11 597.081 249.93 596.361 249.57C595.641 249.21 595.081 248.71 594.681 248.07C594.291 247.43 594.096 246.705 594.096 245.895C594.096 245.095 594.286 244.38 594.666 243.75C595.056 243.11 595.591 242.61 596.271 242.25C596.951 241.89 597.716 241.71 598.566 241.71C599.376 241.71 600.111 241.88 600.771 242.22C601.431 242.55 601.951 243.035 602.331 243.675C602.721 244.305 602.916 245.055 602.916 245.925ZM598.581 243.735C598.141 243.735 597.771 243.86 597.471 244.11C597.181 244.36 596.996 244.7 596.916 245.13H600.246C600.166 244.7 599.976 244.36 599.676 244.11C599.386 243.86 599.021 243.735 598.581 243.735ZM607.185 250.11C606.505 250.11 605.835 250.035 605.175 249.885C604.515 249.725 603.985 249.52 603.585 249.27L604.44 247.32C604.81 247.55 605.25 247.735 605.76 247.875C606.27 248.005 606.775 248.07 607.275 248.07C607.735 248.07 608.06 248.025 608.25 247.935C608.45 247.835 608.55 247.695 608.55 247.515C608.55 247.335 608.43 247.21 608.19 247.14C607.96 247.06 607.59 246.985 607.08 246.915C606.43 246.835 605.875 246.73 605.415 246.6C604.965 246.47 604.575 246.23 604.245 245.88C603.915 245.53 603.75 245.04 603.75 244.41C603.75 243.89 603.905 243.43 604.215 243.03C604.525 242.62 604.975 242.3 605.565 242.07C606.165 241.83 606.88 241.71 607.71 241.71C608.3 241.71 608.885 241.77 609.465 241.89C610.045 242.01 610.53 242.18 610.92 242.4L610.065 244.335C609.345 243.935 608.565 243.735 607.725 243.735C607.275 243.735 606.945 243.79 606.735 243.9C606.525 244 606.42 244.135 606.42 244.305C606.42 244.495 606.535 244.63 606.765 244.71C606.995 244.78 607.375 244.855 607.905 244.935C608.575 245.035 609.13 245.15 609.57 245.28C610.01 245.41 610.39 245.65 610.71 246C611.04 246.34 611.205 246.82 611.205 247.44C611.205 247.95 611.05 248.41 610.74 248.82C610.43 249.22 609.97 249.535 609.36 249.765C608.76 249.995 608.035 250.11 607.185 250.11Z" fill="#8F9BC1"/>
</g>
</g>
<path d="M341.973 425.074C341.973 425.074 294.419 447.365 256.273 433.495C218.127 419.625 183.127 404.269 157.781 444.145C132.435 484.021 136.236 555.779 169.256 612.696C202.276 669.613 214.932 680.103 238.933 681.752C262.934 683.401 268.195 674.126 282.033 672.073C295.871 670.02 311.911 678.594 327.312 678.644C342.713 678.694 356.717 662.744 356.717 662.744L341.973 425.074Z" fill="url(#paint2_linear)"/>
<path d="M339.194 433.495C342.631 474.062 307.25 529.348 320.023 551.062C332.796 572.776 316.217 655.517 279.944 662.74C261.1 666.493 252.453 674.748 248.482 681.818C264.682 680.797 270.258 673.818 282.035 672.072C295.87 670.019 311.913 678.593 327.314 678.643C342.715 678.693 356.719 662.743 356.719 662.743L342.05 426.335C339.88 426.483 338.794 428.762 339.194 433.495Z" fill="#6AD419"/>
<path opacity="0.3" d="M210.291 626.49C180.653 633.727 179.991 593.49 187.423 573.19C194.855 552.89 157.702 518.206 173.66 512.1C189.618 505.994 188.909 541.983 202.306 527.122C215.703 512.261 174.048 479.568 179.006 454.696C182.906 435.129 217.759 427.407 232.453 425.004C203.699 415.604 177.753 412.75 157.79 444.151C132.439 484.021 136.236 555.779 169.256 612.696C202.276 669.613 214.932 680.103 238.933 681.752C242.155 681.988 245.389 682.007 248.614 681.81C248.828 656.641 231.433 621.327 210.291 626.49Z" fill="url(#paint3_linear)"/>
<path d="M278.795 394.923C278.795 394.923 293.695 356.137 324.329 351.823C354.963 347.509 390.773 351.823 390.773 351.823C390.773 351.823 379.123 382.456 350.648 404.023C322.173 425.59 290.571 421.223 281.994 415.645C273.417 410.067 278.795 394.923 278.795 394.923Z" fill="url(#paint4_linear)"/>
<path d="M278.883 441.132C291.728 440.522 304.473 438.57 316.912 435.31C336.398 430.03 340.436 441.132 307.646 449.761C274.856 458.39 255.946 454.938 239.118 445.23C222.29 435.522 226.818 431.209 237.392 430.561C247.966 429.913 260.447 442.939 278.883 441.132Z" fill="#6AD419"/>
<path d="M275.288 446.596C275.288 446.596 278.74 450.623 281.472 446.596C283.109 431.752 282.722 416.753 280.322 402.013C278.093 389.278 273.97 380.551 270.732 375.297C269.67 373.59 267.942 372.407 265.967 372.034C263.993 371.661 261.952 372.133 260.341 373.335L260.117 373.501C258.579 374.641 257.562 376.35 257.293 378.245C257.024 380.14 257.524 382.064 258.683 383.588C263.938 390.767 267.97 398.767 270.613 407.262C274.65 419.959 276.237 433.307 275.288 446.596Z" fill="url(#paint5_linear)"/>
<path d="M166.593 515.777C166.717 515.777 166.84 515.77 166.963 515.757C167.861 515.661 168.684 515.212 169.25 514.508C169.817 513.805 170.08 512.905 169.982 512.007C167.958 493.281 169.922 475.983 175.371 464.547C176.18 462.85 175.46 460.818 173.762 460.009C172.065 459.201 170.034 459.921 169.225 461.618C163.248 474.161 161.057 492.793 163.213 512.738C163.397 514.466 164.855 515.777 166.593 515.777Z" fill="white"/>
<path d="M182.035 454.519C182.678 454.519 183.307 454.336 183.85 453.992C185.99 452.516 188.532 451.734 191.132 451.752C193.012 451.752 194.536 450.228 194.536 448.348C194.536 446.468 193.012 444.944 191.132 444.944C187.245 444.925 183.442 446.071 180.214 448.235C178.932 449.045 178.339 450.605 178.762 452.062C179.184 453.518 180.518 454.52 182.035 454.519Z" fill="white"/>
<path d="M455.789 183.565C455.789 183.565 447.235 161.3 429.65 158.823C412.065 156.346 391.508 158.823 391.508 158.823C396.532 170.598 404.456 180.908 414.542 188.792C430.889 201.176 449.029 198.667 453.953 195.463C458.877 192.259 455.789 183.565 455.789 183.565Z" fill="url(#paint6_linear)"/>
<path d="M391.511 322.042C391.511 322.042 366.743 293.807 370.211 248.73C373.679 203.653 401.411 198.451 415.037 201.671C428.663 204.891 446.987 212.571 462.343 207.371C477.699 202.171 495.532 190.777 514.355 202.665C533.178 214.553 537.802 242.623 535.155 267.065C532.508 291.507 514.68 322.049 503.782 330.099L391.511 322.042Z" fill="url(#paint7_linear)"/>
<path opacity="0.3" d="M514.355 202.661C505.336 196.961 496.544 196.619 488.142 198.371C497.399 205.958 484.456 227.599 488.267 233.043C492.89 239.643 503.128 224.457 500.401 239.317C497.674 254.177 494.871 260.452 503.245 260.783C511.619 261.114 507.42 274.653 496.625 299.75C488.565 318.487 466.534 324.707 455.883 326.657L503.783 330.091C514.683 322.042 532.513 291.491 535.156 267.057C537.799 242.623 533.179 214.549 514.355 202.661Z" fill="url(#paint8_linear)"/>
<path d="M514.48 267.298C514.39 267.298 514.3 267.293 514.211 267.283C513.557 267.214 512.958 266.887 512.545 266.376C512.132 265.864 511.94 265.209 512.011 264.555C513.483 250.931 512.055 238.346 508.09 230.026C507.691 229.225 507.756 228.271 508.259 227.531C508.761 226.791 509.624 226.379 510.516 226.454C511.408 226.53 512.189 227.08 512.561 227.894C516.91 237.02 518.504 250.576 516.935 265.087C516.8 266.342 515.742 267.295 514.48 267.298Z" fill="white"/>
<path d="M428.138 324.668C424.713 321.094 423.185 314.49 416.938 315.932C408.352 317.913 415.947 308.997 411.324 301.402C406.701 293.807 401.087 303.383 392.83 297.769C384.573 292.155 406.37 269.039 399.435 264.821C392.5 260.603 391.835 279.275 383.254 272.34C377.238 267.482 377.139 237.656 377.619 220.24C373.876 227.225 371.15 236.51 370.21 248.732C366.743 293.809 391.51 322.044 391.51 322.044L428.138 324.668Z" fill="#C7283A"/>
<path d="M503.245 222.73C502.777 222.73 502.319 222.598 501.924 222.347C500.366 221.273 498.516 220.704 496.624 220.717C495.256 220.717 494.147 219.608 494.147 218.24C494.147 216.872 495.256 215.763 496.624 215.763C499.452 215.751 502.218 216.587 504.566 218.163C505.499 218.752 505.929 219.887 505.622 220.947C505.315 222.006 504.344 222.735 503.241 222.734L503.245 222.73Z" fill="white"/>
<path d="M455.738 210.092C448.365 209.741 441.048 208.621 433.908 206.749C422.722 203.717 420.408 210.092 439.227 215.049C458.046 220.006 468.907 218.021 478.566 212.449C488.225 206.877 485.625 204.4 479.557 204.028C473.489 203.656 466.322 211.129 455.738 210.092Z" fill="#C7283A"/>
<path d="M457.803 213.23C457.803 213.23 455.822 215.541 454.252 213.23C453.312 204.708 453.535 196.098 454.913 187.636C455.762 182.222 457.63 177.018 460.418 172.3C461.027 171.321 462.019 170.641 463.153 170.427C464.286 170.213 465.457 170.484 466.382 171.174L466.511 171.274C467.394 171.929 467.977 172.91 468.132 173.998C468.287 175.086 467.999 176.19 467.334 177.065C464.317 181.187 462.003 185.779 460.485 190.655C458.168 197.942 457.258 205.603 457.803 213.23Z" fill="url(#paint9_linear)"/>
<rect x="335.677" y="350.213" width="237.56" height="237.56" rx="45.749" fill="url(#paint10_linear)"/>
<circle cx="454.457" cy="468.993" r="97.251" fill="url(#paint11_linear)"/>
<rect x="453.466" y="381.649" width="1.981" height="16.181" fill="#1D164D"/>
<rect x="391.995" y="407.932" width="1.981" height="16.182" transform="rotate(-44.999 391.995 407.932)" fill="#1D164D"/>
<rect x="367.113" y="468.002" width="16.182" height="1.981" fill="#1D164D"/>
<rect x="391.995" y="530.054" width="16.181" height="1.981" transform="rotate(-45 391.995 530.054)" fill="#1D164D"/>
<rect x="453.466" y="540.155" width="1.981" height="16.181" fill="#1D164D"/>
<rect x="504.076" y="520.013" width="1.981" height="16.181" transform="rotate(-45.001 504.076 520.013)" fill="#1D164D"/>
<rect x="525.619" y="468.002" width="16.182" height="1.981" fill="#1D164D"/>
<rect x="504.076" y="417.973" width="16.182" height="1.981" transform="rotate(-45 504.076 417.973)" fill="#1D164D"/>
<path d="M447.648 452.814L437.741 444.953L419.741 468.992L510.496 498.864L465.119 463.464C465.119 463.464 467.958 449.181 447.648 452.814Z" fill="#1D164D"/>
<rect x="408.513" y="338.14" width="91.888" height="11.765" fill="url(#paint12_linear)"/>
<path d="M380.937 322.041H527.977C527.977 330.933 520.769 338.141 511.877 338.141H397.037C388.145 338.141 380.937 330.933 380.937 322.041V322.041Z" fill="url(#paint13_linear)"/>
<rect x="621.578" y="350.461" width="250.422" height="330.132" fill="url(#paint14_linear)"/>
<rect x="793.17" y="350.461" width="78.83" height="330.132" fill="url(#paint15_linear)"/>
<path d="M832.585 350.461H793.17L812.878 315.739L832.586 281.017L852.294 315.739L872.002 350.461H832.585Z" fill="#4099F1"/>
<path d="M661.099 281.018H832.585L793.17 350.461H621.684L661.099 281.018Z" fill="url(#paint16_linear)"/>
<rect x="661.099" y="255.267" width="171.486" height="25.751" fill="#ACD4F3"/>
<rect opacity="0.3" x="621.578" y="398.292" width="136.4" height="197.841" fill="white"/>
<path d="M282.036 520.579C282.036 520.579 266.515 501.921 264.369 491.684C262.223 481.447 258.425 479.465 249.178 475.997C244.859 474.483 240.409 473.372 235.885 472.679C233.637 472.314 231.343 472.955 229.61 474.433C227.877 475.91 226.88 478.074 226.885 480.351V485.061C226.916 492.382 230.366 499.267 236.212 503.674C243.9 509.532 253.668 519.729 254.461 534.104C255.782 558.061 250.379 584.904 282.035 617.668C313.691 650.432 370.084 672.844 426.368 679.435C482.652 686.026 579.273 664.235 624.584 620.144C669.895 576.053 673.09 561.363 672.984 546.832C672.878 532.301 673.368 523.055 678.322 517.937C678.322 517.937 680.822 502.478 672.14 498.737C664.905 495.528 656.647 495.547 649.426 498.788C643.647 501.43 639.561 503.742 629.406 505.475C619.251 507.208 577.436 536.275 545.733 553.112C514.03 569.949 481.278 583.824 441.514 567.312C401.75 550.8 346.271 523.812 322.164 519.474C298.057 515.136 282.036 520.579 282.036 520.579Z" fill="#FED300"/>
<path opacity="0.3" d="M365.896 550.417C410.996 587.452 433.273 597.4 458.705 597.875C484.137 598.35 463.829 589.622 471.754 584.075C479.679 578.528 486.119 601.575 503.954 601.197C521.789 600.819 500.368 587.551 509.961 580.417C519.554 573.283 577.561 572.587 582.861 554.259C585.467 545.259 588.122 534.417 593.019 525.227C577.933 534.467 560.704 545.147 545.73 553.103C514.03 569.945 481.275 583.815 441.511 567.303C401.747 550.791 346.268 523.803 322.161 519.465C298.054 515.127 282.037 520.575 282.037 520.575C282.037 520.575 320.8 513.382 365.896 550.417Z" fill="white"/>
<path d="M672.98 546.828C672.869 532.298 673.364 523.051 678.318 517.933C678.318 517.933 679.869 508.298 676.251 502.398C674.68 511.798 668.245 518.429 662.257 519.465C656.269 520.501 664.613 528.996 657.678 544.59C650.743 560.184 618.527 562.255 605.071 591.905C591.615 621.555 585.357 614.527 581.027 597.87C576.697 581.213 519.31 630.378 487.832 647.57C456.354 664.762 415.616 628.394 349.269 627.07C282.922 625.746 264.369 575.553 268.991 553.758C273.613 531.963 267.34 512.809 251.819 501.132C240.61 492.7 245.589 481.552 249.219 476.006L249.173 475.988C244.854 474.474 240.404 473.363 235.88 472.67C233.632 472.305 231.338 472.946 229.605 474.424C227.872 475.901 226.875 478.065 226.88 480.342V485.052C226.911 492.373 230.361 499.258 236.207 503.665C243.895 509.523 253.663 519.72 254.456 534.095C255.777 558.052 250.374 584.895 282.03 617.659C313.686 650.423 370.079 672.835 426.363 679.426C482.647 686.017 579.268 664.226 624.579 620.135C669.89 576.044 673.091 561.363 672.98 546.828Z" fill="#EAAD03"/>
<path d="M262.319 485.267C259.907 480.336 256.048 478.574 249.177 475.997C244.858 474.483 240.408 473.372 235.884 472.679C232.721 472.159 229.566 473.648 227.956 476.42C229.09 486.269 243.637 488.685 253.471 488.051C258.807 487.706 261.224 486.42 262.319 485.267Z" fill="#1D164D"/>
<path d="M672.135 498.733C669.603 497.631 666.927 496.897 664.187 496.552C664.365 501.229 666.018 505.73 668.911 509.409L678.318 517.937C678.318 517.937 680.813 502.478 672.135 498.733Z" fill="#1D164D"/>
<path d="M252.6 630.346C276.73 666.177 261.188 685.274 236.208 693.914C211.228 702.554 182.555 699.241 168.808 687.043C155.061 674.845 164.134 658.67 164.134 658.67C170.959 659.683 178.383 648.904 179.413 636.77C180.443 624.636 192.732 619.831 191.113 616.07C189.494 612.309 182.034 613.589 182.034 613.589C182.034 613.589 189.147 598.65 198.402 592.689C207.657 586.728 228.469 594.518 252.6 630.346Z" fill="url(#paint17_linear)"/>
<path d="M229.569 690.727C222.613 694.477 217.429 696.099 218.489 686.171C219.549 676.243 217.508 669.78 213.624 668.437C209.74 667.094 213.177 671.876 203.924 675.19C197.147 677.618 208.998 687.352 183.959 686.854C164.617 686.47 164.135 658.673 164.135 658.673L164.129 658.678C164.017 658.878 155.145 674.92 168.808 687.041C182.557 699.241 211.22 702.547 236.208 693.912C237.131 693.593 238.041 693.259 238.937 692.912C235.51 691.182 233.082 688.831 229.569 690.727Z" fill="#C7283A"/>
<path opacity="0.3" d="M252.601 630.346C268.567 654.064 267.161 670.441 257.145 681.316C258.625 674.362 256.98 667.109 252.645 661.474C240.068 644.122 221.545 659.829 221.614 639.381C221.683 618.933 220.385 618.121 211.696 619.038C203.007 619.955 211.567 612.838 208.567 604.318C208.522 604.172 208.466 604.03 208.398 603.893C207.246 600.999 205.977 601.955 204.536 604.122C202.286 607.539 199.625 613.979 196.382 613.17C190.994 611.831 195.316 621.399 184.437 625.343C188.037 620.97 192.087 618.333 191.11 616.074C189.491 612.314 182.031 613.593 182.031 613.593C182.031 613.593 189.144 598.654 198.399 592.693C207.654 586.732 228.474 594.518 252.601 630.346Z" fill="url(#paint18_linear)"/>
<path d="M170.248 629.317C170.248 629.317 166.479 628.183 163.016 623.237C159.553 618.291 158.385 618.343 157.288 620.284C156.191 622.225 158.774 630.323 168.772 634.362C168.772 634.362 159.634 646.836 164.134 658.674C170.959 659.686 178.384 648.9 179.412 636.774C180.44 624.648 192.728 619.834 191.112 616.074C189.496 612.314 182.028 613.595 182.028 613.595C182.028 613.595 174.871 615.855 170.248 629.317Z" fill="url(#paint19_linear)"/>
<path d="M187.611 683.158C188.217 683.448 188.611 684.052 188.633 684.724C188.654 685.396 188.3 686.024 187.713 686.352C187.126 686.681 186.406 686.655 185.844 686.285C184.981 685.798 181.472 681.752 181.472 681.752C181.472 681.752 186.747 682.67 187.611 683.158Z" fill="#FBDA91"/>
<path d="M198.319 667.234C198.925 667.524 199.319 668.128 199.341 668.8C199.362 669.472 199.008 670.1 198.421 670.428C197.834 670.757 197.114 670.731 196.552 670.361C195.689 669.873 192.18 665.827 192.18 665.827C192.18 665.827 197.457 666.746 198.319 667.234Z" fill="#FBDA91"/>
<path d="M221.926 664.144C222.524 664.439 222.91 665.041 222.928 665.708C222.946 666.375 222.595 666.997 222.014 667.325C221.433 667.653 220.719 667.633 220.157 667.273C219.294 666.786 215.785 662.74 215.785 662.74C215.785 662.74 221.063 663.659 221.926 664.144Z" fill="#FBDA91"/>
<path d="M230.558 615.315C231.24 615.497 231.755 616.057 231.879 616.751C232.003 617.446 231.714 618.149 231.138 618.556C230.562 618.963 229.802 619 229.189 618.651C228.141 618.221 223.489 614.364 223.489 614.364C223.489 614.364 229.509 614.885 230.558 615.315Z" fill="#F9E2B2"/>
<path d="M228.119 641.029C228.728 641.318 229.124 641.922 229.146 642.596C229.168 643.269 228.813 643.899 228.224 644.227C227.636 644.555 226.914 644.527 226.352 644.155C225.489 643.668 221.98 639.622 221.98 639.622C221.98 639.622 227.255 640.54 228.119 641.029Z" fill="#F9E2B2"/>
<path d="M212.905 625.513C213.511 625.803 213.905 626.407 213.927 627.079C213.948 627.751 213.593 628.379 213.007 628.707C212.42 629.036 211.699 629.01 211.138 628.64C210.275 628.152 206.766 624.106 206.766 624.106C206.766 624.106 212.042 625.024 212.905 625.513Z" fill="#FBDA91"/>
<path d="M208.399 603.893C207.56 604.01 205.909 604.093 204.537 604.122C205.978 601.955 207.247 600.999 208.399 603.893Z" fill="#FBDA91"/>
<path d="M210.266 601.977C210.466 602.706 209.819 603.533 208.807 603.815C208.673 603.848 208.536 603.874 208.399 603.892C207.247 600.998 205.978 601.954 204.537 604.121C203.395 604.169 202.445 604.178 202.307 604.18C204.168 603.061 206.09 602.047 208.064 601.141C208.903 600.784 209.875 601.153 210.266 601.977Z" fill="#F9E2B2"/>
<path d="M231.439 680.051C232.048 680.34 232.444 680.944 232.466 681.618C232.488 682.291 232.133 682.921 231.544 683.249C230.956 683.577 230.233 683.549 229.672 683.177C228.809 682.69 225.3 678.643 225.3 678.643C225.3 678.643 230.576 679.562 231.439 680.051Z" fill="#FBDA91"/>
<path d="M184.431 625.343C184.358 625.337 181.389 625.128 176.89 633.262C172.334 641.497 172.277 648.294 169.168 649.762C167.431 650.582 165.431 647.369 164.004 644.376C162.481 649.028 162.527 654.052 164.134 658.676C170.959 659.689 178.384 648.902 179.412 636.776C179.849 632.534 181.605 628.536 184.431 625.343Z" fill="#6BBC61"/>
<path d="M377.024 506.927L399.057 517.458V503.093L380.944 484.507C379.778 483.312 378.458 482.276 377.021 481.426L377.024 506.927Z" fill="url(#paint20_linear)"/>
<path d="M388.784 510.151C384.697 507.922 386.555 503.835 381.478 501.482C377.878 499.812 377.146 496.092 377.025 494.068V506.927L399.058 517.458L393.058 496.931C389.609 500.616 388.784 510.151 388.784 510.151Z" fill="#C9E2F4"/>
<path d="M421.061 533.636C419.605 533.715 416.613 533.715 412.861 533.686L412.296 533.676C401.002 533.567 383.338 533.101 378.596 532.976C378.319 532.976 378.081 532.966 377.896 532.956L377.396 532.946V541.981H324.398L334.176 488.869L334.335 488.027C335.08 483.996 337.845 480.632 341.656 479.121L345.728 477.506H345.738L356.17 473.375L368.147 478.121L372.962 479.621C374.383 480.061 375.747 480.67 377.024 481.434V516.221L412.858 523.849C414.344 524.177 415.864 524.317 417.385 524.265C420.238 523.532 419.911 521.996 420.734 522.739C421.557 523.482 419.912 525.959 419.912 525.959C426.758 527.445 429.235 523.978 430.641 525.305C432.047 526.632 427.59 533.309 421.061 533.636Z" fill="url(#paint21_linear)"/>
<path d="M377.391 532.942V541.977H365.77C367.187 540.6 367.355 539.203 364.264 538.262C356.091 535.785 352.376 536.528 351.385 529.346C350.394 522.164 336.316 523.005 337.02 511.513C337.262 506.631 336.936 501.737 336.049 496.93C336.524 498.003 337.084 499.037 337.723 500.021L355.14 526.81C357.144 529.883 360.479 531.833 364.14 532.071L377.391 532.942Z" fill="#4099F1"/>
<path d="M357.082 465.693C357.082 465.693 356.669 464.207 352.624 460.657C348.579 457.107 347.175 447.365 354.275 446.539C354.275 446.539 354.523 441.09 359.806 440.182C365.089 439.274 376.153 440.595 380.445 439.109C384.737 437.623 382.426 451.08 373.098 455.868C367.515 458.728 362.161 462.012 357.082 465.693Z" fill="url(#paint22_linear)"/>
<path d="M375.167 450.09C375.167 450.09 375.332 463.712 374.667 467.757C374.002 471.802 371.282 472.546 368.145 471.803V478.119L365.173 482.453L356.173 473.371V461.153C356.173 461.153 352.623 459.935 353.49 456.777C354.357 453.619 357.948 453.929 359.063 457.459C360.51 455.56 360.997 453.099 360.384 450.792C360.384 450.792 368.062 454.3 375.167 450.09Z" fill="url(#paint23_linear)"/>
<path d="M360.384 467.757C360.384 467.757 362.262 474.142 368.145 474.381V471.803C368.145 471.803 362.985 471.018 360.384 467.757Z" fill="#1D164D"/>
<path d="M377.391 541.978V668.978H363.991L348.908 582.428L314.818 668.978H300.998L324.398 541.978H377.391Z" fill="url(#paint24_linear)"/>
<path d="M483.644 541.978C464.325 580.615 440.053 576.484 420.239 558.988C400.425 541.492 389.201 514.902 393.054 496.933C396.907 478.964 415.454 478.902 415.454 478.902C417.931 485.342 430.968 486.502 442.035 481.428C453.102 476.354 463.335 484.687 465.812 481.428C468.289 478.169 463.501 472.302 463.501 472.302C463.501 472.302 480.006 471.143 489.755 476.265C499.504 481.387 502.963 503.341 483.644 541.978Z" fill="url(#paint25_linear)"/>
<path d="M419.743 551.638C413.056 547.427 409.093 543.712 418.257 539.75C427.421 535.788 432.045 530.831 431.302 526.789C430.559 522.747 428.088 528.089 420.652 521.67C415.203 516.964 412.561 532.07 400.673 510.029C391.49 493.002 415.451 478.904 415.451 478.904H415.443C415.213 478.904 396.884 479.076 393.054 496.935C389.2 514.906 400.425 541.487 420.239 558.993C420.972 559.64 421.711 560.267 422.456 560.875C422.272 557.038 423.126 553.77 419.743 551.638Z" fill="#C7283A"/>
<path d="M421.061 533.636C427.59 533.309 432.048 526.622 430.641 525.304C429.234 523.986 426.758 527.444 419.912 525.958C419.912 525.958 421.557 523.481 420.734 522.738C419.911 521.995 420.234 523.531 417.385 524.264C415.864 524.312 414.343 524.17 412.857 523.841V533.683C416.615 533.718 419.608 533.711 421.061 533.636Z" fill="url(#paint26_linear)"/>
<path d="M300.998 668.976H314.818L310.271 680.508H298.878L300.998 668.976Z" fill="url(#paint27_linear)"/>
<path d="M377.391 668.976V680.508H365.998L363.987 668.976H377.391Z" fill="url(#paint28_linear)"/>
<path d="M412.859 523.838V533.683L412.294 533.673L378.594 532.973L377.894 532.953L377.394 532.943L364.14 532.075C360.477 531.837 357.141 529.884 355.14 526.807L337.721 500.021C335.557 496.689 334.331 492.836 334.174 488.866L334.333 488.024C335.078 483.993 337.843 480.629 341.654 479.118L345.726 477.503H345.964C350.433 477.505 354.46 480.205 356.158 484.339L367.164 514.122L377.023 516.222L412.859 523.838Z" fill="url(#paint29_linear)"/>
<path d="M359.514 555.503L348.908 582.428L352.033 600.365L359.514 555.503Z" fill="#1D164D"/>
<path d="M300.173 673.459C298.37 673.459 296.824 674.746 296.498 676.519L294.744 686.043C294.541 687.145 294.839 688.28 295.556 689.142C296.273 690.003 297.335 690.501 298.456 690.501H335.781C336.601 690.5 337.266 689.835 337.267 689.015C337.267 687.858 336.592 686.808 335.539 686.329L312.169 675.69C312.169 675.69 302.873 680.606 300.173 673.459Z" fill="url(#paint30_linear)"/>
<path d="M315.943 680.514C317.52 679.943 319.206 679.74 320.873 679.92C321.443 680.05 321.611 680.205 321.628 680.254C321.689 680.433 321.194 681.045 320.928 681.373C320.376 682.054 319.751 682.825 319.888 683.639C319.987 684.114 320.291 684.522 320.72 684.75C321.138 685.028 321.628 685.18 322.13 685.187C323.18 685.054 324.164 684.603 324.95 683.893C325.654 683.32 326.455 682.878 327.315 682.586L326.058 682.013C325.468 682.326 324.905 682.685 324.372 683.088C323.051 684.036 322.257 684.54 321.245 683.91C321.064 683.824 320.926 683.666 320.865 683.475C320.803 683.101 321.299 682.488 321.697 681.997C322.125 681.562 322.438 681.028 322.607 680.442L319.107 678.849C317.945 678.981 316.797 679.219 315.679 679.56C315.046 679.77 314.39 679.907 313.726 679.967C313.745 679.848 313.779 679.731 313.826 679.62C314.267 678.502 315.56 678.005 316.775 677.787L315.357 677.142C314.268 677.451 313.371 678.224 312.904 679.255C312.813 679.484 312.538 680.179 312.953 680.64C313.455 681.196 314.448 680.928 315.943 680.514Z" fill="white"/>
<path opacity="0.3" d="M483.639 541.978C470.849 567.548 455.899 574.384 441.504 571.016C448.288 568.883 453.795 563.882 456.568 557.333C465.484 537.846 442.698 529.455 460.531 519.448C478.364 509.441 478.431 507.916 473.361 500.803C468.291 493.69 478.691 497.643 484.635 490.837C484.74 490.725 484.835 490.606 484.922 490.48C486.874 488.053 485.422 487.419 482.822 487.23C478.74 486.953 471.822 487.805 470.933 484.585C469.447 479.235 463.245 487.706 454.458 480.176C460.036 481.157 464.325 483.386 465.812 481.424C468.289 478.165 463.504 472.3 463.504 472.3C463.504 472.3 480.009 471.141 489.758 476.263C499.507 481.385 502.962 503.341 483.639 541.978Z" fill="url(#paint31_linear)"/>
<path d="M364.77 673.459C362.967 673.459 361.421 674.746 361.095 676.519L359.341 686.044C359.138 687.146 359.436 688.281 360.153 689.143C360.87 690.004 361.932 690.502 363.053 690.502H400.378C401.198 690.501 401.863 689.836 401.864 689.016C401.864 687.859 401.188 686.809 400.135 686.33L377.391 675.807C377.391 675.807 367.47 680.606 364.77 673.459Z" fill="url(#paint32_linear)"/>
<path d="M377.559 680.496C378.075 681.07 379.096 680.796 380.641 680.366C382.21 679.934 384.163 679.397 385.728 679.753C386.316 679.887 386.49 680.047 386.507 680.098C386.571 680.282 386.06 680.913 385.787 681.252C385.217 681.952 384.572 682.752 384.714 683.59C384.816 684.08 385.13 684.499 385.572 684.735C386.003 685.022 386.508 685.178 387.026 685.186C388.11 685.049 389.125 684.584 389.936 683.852C390.592 683.338 391.317 682.919 392.089 682.607L390.862 682.039C390.335 682.334 389.826 682.662 389.339 683.021C387.976 684 387.156 684.521 386.112 683.87C385.925 683.781 385.783 683.619 385.721 683.421C385.657 683.036 386.169 682.403 386.58 681.896C386.964 681.481 387.265 680.995 387.466 680.467L383.611 678.684C382.514 678.833 381.43 679.067 380.369 679.384C379.716 679.602 379.04 679.743 378.355 679.805C378.373 679.682 378.407 679.561 378.455 679.446C379.028 678.403 380.081 677.713 381.265 677.604L379.873 676.96C378.819 677.293 377.957 678.061 377.504 679.07C377.415 679.303 377.131 680.02 377.559 680.496Z" fill="white"/>
<path d="M444.016 469.78C444.016 469.78 443.149 465.941 445.75 460.492C448.351 455.043 447.731 454.052 445.502 454.052C443.273 454.052 437.494 460.286 438.897 470.976C438.897 470.976 423.541 469.16 415.451 478.902C417.928 485.342 430.971 486.502 442.035 481.425C453.099 476.348 463.335 484.681 465.812 481.425C468.289 478.169 463.5 472.303 463.5 472.303C463.5 472.303 458.01 467.18 444.016 469.78Z" fill="url(#paint33_linear)"/>
<path d="M405.687 511.389C405.735 512.061 405.403 512.703 404.828 513.053C404.253 513.404 403.53 513.404 402.955 513.053C402.38 512.703 402.048 512.061 402.096 511.389C402.096 510.397 403.896 505.352 403.896 505.352C403.896 505.352 405.687 510.398 405.687 511.389Z" fill="#FBDA91"/>
<path d="M424.821 512.875C424.869 513.547 424.537 514.189 423.962 514.539C423.387 514.89 422.664 514.89 422.089 514.539C421.514 514.189 421.182 513.547 421.23 512.875C421.23 511.883 423.03 506.838 423.03 506.838C423.03 506.838 424.821 511.884 424.821 512.875Z" fill="#FBDA91"/>
<path d="M439.123 531.908C439.056 532.85 438.272 533.581 437.327 533.581C436.383 533.581 435.599 532.85 435.532 531.908C435.532 530.916 437.332 525.871 437.332 525.871C437.332 525.871 439.123 530.917 439.123 531.908Z" fill="#FBDA91"/>
<path d="M485.881 515.389C486.059 516.072 485.826 516.797 485.282 517.248C484.739 517.699 483.983 517.794 483.345 517.492C482.706 517.19 482.3 516.545 482.304 515.839C482.162 514.715 483.231 508.769 483.231 508.769C483.231 508.769 485.741 514.266 485.881 515.389Z" fill="#F9E2B2"/>
<path d="M462.297 525.922C462.23 526.864 461.446 527.595 460.501 527.595C459.557 527.595 458.773 526.864 458.706 525.922C458.706 524.93 460.506 519.885 460.506 519.885C460.506 519.885 462.297 524.931 462.297 525.922Z" fill="#F9E2B2"/>
<path d="M468.321 505.043C468.254 505.985 467.47 506.716 466.525 506.716C465.581 506.716 464.797 505.985 464.73 505.043C464.73 504.051 466.53 499.006 466.53 499.006C466.53 499.006 468.321 504.052 468.321 505.043Z" fill="#FBDA91"/>
<path d="M484.922 490.481C484.407 489.807 483.522 488.41 482.822 487.231C485.418 487.419 486.874 488.053 484.922 490.481Z" fill="#FBDA91"/>
<path d="M487.507 491.164C486.76 491.677 485.741 491.516 485.189 490.797C485.094 490.696 485.005 490.59 484.921 490.48C486.873 488.053 485.421 487.419 482.821 487.23C482.221 486.259 481.741 485.437 481.672 485.318C483.562 486.388 485.391 487.562 487.151 488.835C487.876 489.39 488.033 490.418 487.507 491.164Z" fill="#F9E2B2"/>
<path d="M429.959 548.014C429.892 548.956 429.108 549.687 428.163 549.687C427.219 549.687 426.435 548.956 426.368 548.014C426.368 547.022 428.168 541.977 428.168 541.977C428.168 541.977 429.959 547.023 429.959 548.014Z" fill="#FBDA91"/>
<path d="M454.455 480.172C454.424 480.105 453.145 477.418 443.855 477.503C434.443 477.589 428.499 480.884 425.692 478.903C424.124 477.794 425.936 474.473 427.84 471.756C423.04 472.72 418.69 475.231 415.455 478.906C417.932 485.346 430.975 486.506 442.039 481.429C445.945 479.723 450.287 479.283 454.455 480.172Z" fill="#6BBC61"/>
<path d="M588.507 679.934H573.082L546.682 627.229C544.977 623.818 543.6 620.251 542.571 616.579L535.636 591.901L531.108 609.367L527.208 679.935H512.257L507.492 605.583C507.403 604.134 507.462 602.68 507.67 601.244L513.079 565.014V551.393L520.499 551.066L562.931 551.393L564.09 599.938L565.903 614.303L588.507 679.934Z" fill="url(#paint34_linear)"/>
<path d="M531.109 609.366L535.637 591.895L531.423 568.735L531.109 609.366Z" fill="#1D164D"/>
<path d="M507.953 498.51C507.953 498.51 512.535 495.166 512.411 479.934C512.287 464.702 510.182 452.07 517.364 447.241C524.546 442.412 532.472 446.003 533.401 450.832C533.401 450.832 536.435 448.355 538.416 450.956C540.397 453.557 540.15 471.967 552.038 482.039C563.926 492.111 563.761 503.839 557.487 509.449C551.213 515.059 507.953 498.51 507.953 498.51Z" fill="url(#paint35_linear)"/>
<path d="M580.769 592.999C564.918 607.86 538.416 601.915 538.416 601.915C531.977 582.349 529.416 551.389 529.416 551.389L520.5 551.059C520.863 568.699 523.133 586.249 527.269 603.401C511.913 603.074 504.483 593.494 504.483 593.494C512.409 572.194 513.776 542.354 513.776 542.354L481.063 543.354L477.358 543.463C473.508 543.886 469.612 543.491 465.925 542.304C459.325 540.323 457.009 535.29 459.325 535.704C461.641 536.118 469.688 535.228 469.688 535.228C468.44 533.861 468.509 530.958 469.064 530.958C469.619 530.958 469.995 532.622 472.224 533.058C473.761 533.383 475.271 533.824 476.742 534.376L487.778 531.79L513.398 525.796L512.407 517.702L490.592 525.895C493.483 519.7 495.939 513.311 497.943 506.774L510.538 493.728C512.353 491.856 514.5 490.338 516.869 489.25L521.822 486.991L533.403 483.335L544.014 485.683C545.359 485.985 546.659 486.465 547.878 487.11C552.508 489.563 555.556 494.219 555.952 499.444C556.041 500.633 556.152 501.901 556.259 503.228V503.238C557.19 514.562 558.726 530.215 560.959 542.797C564.917 565.259 580.769 592.999 580.769 592.999Z" fill="url(#paint36_linear)"/>
<path d="M558.895 529.009C558.836 528.603 558.162 525.284 553.773 523.798C549.097 522.198 543.618 528.598 541.141 539.005C538.664 549.412 529.421 551.389 520.505 551.062C515.086 550.854 513.332 552.756 512.787 554.272C513.56 547.159 513.778 542.354 513.778 542.354H526.008C529.771 542.355 533.266 540.405 535.242 537.202L556.264 503.241C556.571 506.956 556.938 511.141 557.384 515.526C557.83 519.911 558.321 524.482 558.895 529.009Z" fill="#C9E2F4"/>
<path d="M540.141 488.896C536.44 490.7 533.483 493.737 531.779 497.485L525.607 511.117L519.613 524.343L518.999 524.492L513.399 525.8C520.007 523.492 516.044 515.4 519.099 514.228C521.199 513.435 523.478 510.453 525.599 505.985C526.649 503.971 527.56 501.887 528.326 499.748C530.95 491.853 539.418 489.064 540.141 488.896Z" fill="#C9E2F4"/>
<path d="M525.709 503.588C526.702 489.138 533.402 483.341 533.402 483.341L521.823 486.994C521.823 486.994 516.417 511.243 520.502 551.06L529.418 551.39C529.418 551.39 524.715 518.038 525.709 503.588Z" fill="url(#paint37_linear)"/>
<path d="M525.607 511.116L519.613 524.342L518.999 524.491C518.949 520.825 518.999 517.408 519.099 514.227C521.199 513.434 523.478 510.452 525.599 505.984C525.557 507.561 525.557 509.285 525.607 511.116Z" fill="#B122E5"/>
<path d="M529.5 459.749C529.5 459.749 520.749 463.464 515.053 459.749C515.053 459.749 514.253 478.216 516.869 480.636C518.236 481.816 520.146 482.135 521.822 481.462V486.993L524.67 490.893L533.401 483.339V471.205C533.401 471.205 537.962 468.129 535.981 465.322C534 462.515 531.687 467.551 531.687 469.037C531.391 468.14 530.897 467.322 530.242 466.642C529.005 465.198 529.5 459.749 529.5 459.749Z" fill="url(#paint38_linear)"/>
<path d="M528.323 477.149C526.546 479.102 524.313 480.584 521.823 481.463V484.706C526.679 483.268 528.323 477.149 528.323 477.149Z" fill="#1D164D"/>
<path d="M556.259 503.232V503.242L535.241 537.208C533.261 540.408 529.767 542.355 526.004 542.355H513.778L481.065 543.355L477.36 543.464C473.51 543.887 469.614 543.492 465.927 542.305C459.327 540.324 457.011 535.291 459.327 535.705C461.643 536.119 469.69 535.229 469.69 535.229C468.442 533.862 468.511 530.959 469.066 530.959C469.621 530.959 469.997 532.623 472.226 533.059C473.763 533.384 475.273 533.825 476.744 534.377L487.78 531.791L513.4 525.797L519.612 524.341L531.781 497.488C534.645 491.168 540.942 487.109 547.881 487.11C552.511 489.563 555.559 494.219 555.955 499.444C556.042 500.636 556.15 501.904 556.259 503.232Z" fill="url(#paint39_linear)"/>
<path d="M472.228 533.061C469.999 532.625 469.622 530.961 469.068 530.961C468.514 530.961 468.444 533.861 469.692 535.231C469.692 535.231 461.638 536.113 459.329 535.707C457.02 535.301 459.329 540.324 465.929 542.307C469.616 543.494 473.512 543.889 477.362 543.466L476.748 534.381C475.277 533.828 473.766 533.387 472.228 533.061Z" fill="url(#paint40_linear)"/>
<path d="M512.416 517.706L511.26 499.048C511.26 499.048 507.591 508.46 507.36 512.918C507.129 517.376 503.333 514.218 499.701 517.365C496.301 520.312 498.688 513.414 496.159 512.249C494.659 516.513 492.827 521.056 490.599 525.899L512.416 517.706Z" fill="#C9E2F4"/>
<path d="M512.262 679.933H527.202L526.489 692.812H513.089L512.262 679.933Z" fill="url(#paint41_linear)"/>
<path d="M592.936 692.812H579.536L573.086 679.933H588.512L592.936 692.812Z" fill="url(#paint42_linear)"/>
<path d="M527.065 682.406C528.868 682.406 530.413 683.693 530.74 685.466L532.493 694.99C532.696 696.092 532.399 697.228 531.682 698.089C530.965 698.95 529.902 699.448 528.781 699.448H491.457C490.636 699.448 489.971 698.783 489.971 697.962C489.971 696.805 490.646 695.755 491.699 695.276L512.546 684.638C512.546 684.638 524.365 689.554 527.065 682.406Z" fill="url(#paint43_linear)"/>
<path d="M500.902 692.501C501.742 693.259 502.794 693.742 503.916 693.884C504.452 693.876 504.975 693.714 505.422 693.417C505.88 693.172 506.205 692.738 506.312 692.23C506.458 691.36 505.79 690.53 505.2 689.809C504.917 689.49 504.677 689.136 504.485 688.755L503.534 689.24C503.762 689.686 504.045 690.101 504.378 690.475C504.804 691 505.334 691.656 505.268 692.054C505.204 692.259 505.057 692.427 504.863 692.519C503.782 693.193 502.932 692.654 501.521 691.64C501.153 691.376 500.761 691.112 500.354 690.862L499.225 691.439C499.812 691.747 500.373 692.102 500.902 692.501Z" fill="white"/>
<path d="M510.81 687.868C509.757 687.558 508.683 687.324 507.596 687.168L505.549 688.212C507.237 688.104 508.93 688.335 510.528 688.892C512.128 689.334 513.186 689.621 513.721 689.027C514.164 688.535 513.87 687.792 513.773 687.548C513.287 686.469 512.355 685.656 511.221 685.319L509.844 686.019C511.083 686.128 512.187 686.846 512.789 687.934C512.84 688.053 512.876 688.177 512.896 688.305C512.186 688.241 511.486 688.094 510.81 687.868Z" fill="white"/>
<path d="M589.356 682.406C591.159 682.406 592.705 683.693 593.031 685.466L594.785 694.99C594.988 696.092 594.69 697.227 593.973 698.089C593.256 698.95 592.194 699.448 591.073 699.448H553.748C552.927 699.447 552.263 698.782 552.262 697.962C552.262 696.805 552.938 695.755 553.991 695.276L575.391 684.638C575.391 684.638 586.656 689.554 589.356 682.406Z" fill="url(#paint44_linear)"/>
<path d="M589.356 682.406C591.159 682.406 592.705 683.693 593.031 685.466L594.785 694.99C594.988 696.092 594.69 697.227 593.973 698.089C593.256 698.95 592.194 699.448 591.073 699.448H553.748C552.927 699.447 552.263 698.782 552.262 697.962C552.262 696.805 552.938 695.755 553.991 695.276L575.391 684.638C575.391 684.638 586.656 689.554 589.356 682.406Z" fill="url(#paint45_linear)"/>
<path d="M563.414 692.674C564.231 693.411 565.254 693.88 566.345 694.018C566.867 694.01 567.375 693.853 567.81 693.564C568.255 693.327 568.572 692.904 568.675 692.41C568.818 691.564 568.168 690.761 567.594 690.054C567.318 689.713 566.803 689.077 566.868 688.891C566.875 688.88 566.883 688.87 566.893 688.861L565.925 689.342C566.136 689.841 566.431 690.301 566.795 690.702C567.209 691.213 567.725 691.85 567.66 692.239C567.598 692.438 567.455 692.602 567.266 692.691C566.215 693.347 565.389 692.822 564.016 691.836C563.597 691.536 563.147 691.236 562.674 690.959L561.539 691.524C562.203 691.84 562.831 692.226 563.414 692.674Z" fill="white"/>
<path d="M572.779 689.162C574.336 689.592 575.365 689.871 575.885 689.293C576.315 688.814 576.03 688.093 575.935 687.854C575.438 686.781 574.502 685.976 573.368 685.643L571.968 686.343C573.215 686.575 574.526 687.092 574.978 688.235C575.027 688.351 575.063 688.473 575.083 688.597C574.392 688.534 573.711 688.392 573.053 688.173C571.962 687.847 570.846 687.609 569.716 687.463L568.257 688.188L567.372 688.628C567.456 688.601 567.54 688.575 567.653 688.549C569.231 688.187 571.195 688.73 572.779 689.162Z" fill="white"/>
<path opacity="0.5" d="M572.295 424.621C571.868 429.667 572.517 435.674 575.659 440.38C575.812 440.608 575.967 440.829 576.132 441.04C576.151 441.071 576.172 441.101 576.195 441.129C576.33 441.302 576.465 441.476 576.601 441.642C576.647 441.698 576.694 441.747 576.74 441.803C576.859 441.937 576.972 442.069 577.086 442.194C577.155 442.263 577.218 442.332 577.286 442.394L577.57 442.694C577.658 442.769 577.738 442.85 577.826 442.925C577.914 443 577.99 443.073 578.065 443.145C578.165 443.224 578.265 443.31 578.365 443.39C578.431 443.446 578.499 443.501 578.565 443.55C578.676 443.64 578.79 443.723 578.899 443.799C578.961 443.846 579.019 443.884 579.083 443.925C579.196 444.008 579.318 444.087 579.436 444.158C579.447 444.169 579.46 444.173 579.464 444.181C580.097 444.197 580.729 444.149 581.352 444.036C583.882 443.575 586.051 441.957 587.214 439.663C590.148 433.953 591.705 424.263 586.168 416.524C585.021 414.883 583.593 413.458 581.949 412.315C581.034 411.685 580.02 411.215 578.949 410.923L578.899 410.95C578.631 411.118 578.368 411.295 578.114 411.489C578.1 411.494 578.088 411.503 578.078 411.513C576.726 412.571 575.593 413.883 574.745 415.375C574.745 415.381 574.734 415.386 574.73 415.399C574.567 415.682 574.416 415.97 574.28 416.255C574.27 416.265 574.264 416.278 574.262 416.292C574.123 416.583 573.993 416.871 573.884 417.157C573.016 419.561 572.481 422.072 572.295 424.621Z" fill="url(#paint46_linear)"/>
<path d="M587.962 454.446L586.455 444.679L583.707 445.04L585.214 454.807L587.962 454.446Z" fill="#B7C0E2"/>
<ellipse cx="638.648" cy="415.6" rx="19.164" ry="21.908" transform="rotate(-72.957 638.648 415.6)" fill="url(#paint47_linear)"/>
<path d="M646.786 439.211L644.554 428.15C644.554 428.15 648.086 427.783 647.927 423.387C647.768 418.991 641.574 419.526 640.8 423.753C638.995 422.657 637.901 420.692 637.921 418.581C638.101 415.158 637.543 414.523 636.654 414.773C635.765 415.023 632.003 420.303 628.432 419.846C624.861 419.389 624.205 418.318 623.794 419.468C623.383 420.618 625.568 432.592 627.443 436.124C628.375 438.124 630.309 439.469 632.508 439.648L633.379 444.987L641.927 449.868C641.927 449.868 650.407 444.089 646.786 439.211Z" fill="url(#paint48_linear)"/>
<path d="M631.257 601.816L630.557 604.095L613.221 607.129L635.849 614.066L638.887 604.156L631.257 601.816Z" fill="#1D164D"/>
<path d="M610.273 595.386L609.573 597.665L592.237 600.699L614.865 607.636L617.903 597.726L610.273 595.386Z" fill="#1D164D"/>
<path d="M627.968 507.59C627.968 507.59 608.157 536.475 603.868 545.941C599.579 555.407 610.277 595.386 610.277 595.386L617.907 597.725C617.907 597.725 618.913 569.858 620.17 563.113C621.427 556.368 640.02 535.806 640.02 535.806L651.359 517.541L648.308 510.107L627.968 507.59Z" fill="url(#paint49_linear)"/>
<path d="M672.742 508.097C672.742 508.097 674.406 517.419 668.91 530.807C663.414 544.195 644.257 555.251 642.11 560.738C639.963 566.225 638.886 604.158 638.886 604.158L631.255 601.818C631.255 601.818 623.318 565.336 621.391 553.846C619.464 542.356 644.315 522.341 650.825 504.51L672.742 508.097Z" fill="url(#paint50_linear)"/>
<path d="M673.463 504.608C674.774 506.278 674.941 508.576 673.885 510.418C672.144 513.827 638.852 514.635 631.417 513.168C625.47 511.994 624.283 510.053 624.631 508.968C625.014 507.536 625.162 506.052 625.068 504.573L624.584 474.373C624.584 474.373 614.994 488.073 608.975 491.444C602.956 494.815 585.234 468.281 585.234 468.281L589.758 460.711C589.758 460.711 602.699 474.098 605.209 474.984C607.719 475.87 613.394 461.145 615.759 454.566C618.124 447.987 619.026 446.176 621.137 444.966C623.248 443.756 632.895 442.009 632.895 442.009C634.095 444.646 636.77 446.295 639.664 446.182C644.693 446.042 646.788 439.206 646.788 439.206C646.788 439.206 664.161 444.561 669.893 446.289C675.625 448.017 693.231 473.789 696.784 481.489C700.337 489.189 704.184 510.309 704.184 510.309L697.479 512.891C697.479 512.891 686.813 490.954 682.251 485.033C677.689 479.112 666.801 472.644 666.801 472.644L673.463 504.608Z" fill="url(#paint51_linear)"/>
<path d="M591.325 470.964L588.953 455.584L584.626 456.152L586.998 471.532L591.325 470.964Z" fill="#414E6E"/>
<path d="M586.519 473.923L591.834 473.223C592.174 473.178 592.48 472.991 592.675 472.708C592.869 472.425 592.935 472.073 592.856 471.739C592.713 471.133 592.134 470.734 591.517 470.816L586.203 471.516C585.862 471.561 585.557 471.748 585.362 472.031C585.167 472.314 585.101 472.666 585.18 473C585.324 473.605 585.902 474.004 586.519 473.923Z" fill="#2C3449"/>
<path d="M584.233 456.457L589.547 455.757C589.888 455.713 590.194 455.526 590.389 455.243C590.584 454.961 590.65 454.608 590.571 454.274C590.427 453.669 589.849 453.27 589.232 453.35L583.917 454.05C583.576 454.095 583.271 454.282 583.076 454.565C582.881 454.848 582.815 455.2 582.895 455.534C583.039 456.139 583.616 456.537 584.233 456.457Z" fill="#2C3449"/>
<path d="M578.089 411.511C576.736 412.567 575.604 413.878 574.757 415.371C575.603 413.878 576.735 412.566 578.089 411.511V411.511Z" fill="#B7C0E2"/>
<path d="M579.084 443.922C579.202 444.003 579.32 444.084 579.438 444.158C579.32 444.083 579.202 444.003 579.084 443.922Z" fill="#B7C0E2"/>
<path d="M578.572 443.549C578.683 443.634 578.793 443.718 578.905 443.799C578.793 443.718 578.683 443.634 578.572 443.549Z" fill="#B7C0E2"/>
<path d="M578.906 410.949C578.639 411.114 578.377 411.292 578.12 411.483C578.375 411.292 578.637 411.114 578.906 410.949Z" fill="#B7C0E2"/>
<path d="M578.072 443.141C578.172 443.225 578.272 443.308 578.372 443.389C578.268 443.305 578.17 443.225 578.072 443.141Z" fill="#B7C0E2"/>
<path d="M576.128 441.042C576.15 441.072 576.173 441.099 576.194 441.128C576.176 441.099 576.15 441.072 576.128 441.042Z" fill="#B7C0E2"/>
<path d="M577.087 442.192C577.152 442.262 577.219 442.33 577.287 442.398C577.219 442.33 577.152 442.262 577.087 442.192Z" fill="#B7C0E2"/>
<path d="M577.576 442.689C577.659 442.769 577.743 442.847 577.827 442.924C577.743 442.847 577.662 442.769 577.576 442.689Z" fill="#B7C0E2"/>
<path d="M576.603 441.644C576.649 441.699 576.695 441.75 576.742 441.804C576.695 441.75 576.649 441.698 576.603 441.644Z" fill="#B7C0E2"/>
<path d="M574.742 415.392C574.579 415.677 574.427 415.964 574.288 416.253C574.425 415.964 574.576 415.677 574.742 415.392Z" fill="#B7C0E2"/>
<path d="M572.297 424.623C572.486 422.072 573.024 419.559 573.897 417.155C574.008 416.868 574.137 416.578 574.274 416.289C574.136 416.577 574.01 416.867 573.899 417.153C573.025 419.558 572.486 422.071 572.297 424.623Z" fill="#B7C0E2"/>
<path d="M577.827 442.924C577.908 442.997 577.989 443.07 578.072 443.141C577.989 443.07 577.908 442.997 577.827 442.924Z" fill="#B7C0E2"/>
<path d="M577.285 442.398C577.385 442.498 577.478 442.598 577.576 442.689C577.478 442.595 577.382 442.497 577.285 442.398Z" fill="#B7C0E2"/>
<path d="M576.742 441.804C576.856 441.937 576.971 442.068 577.086 442.192C576.97 442.068 576.856 441.937 576.742 441.804Z" fill="#B7C0E2"/>
<path d="M575.657 440.379C575.81 440.609 575.967 440.83 576.128 441.043C575.969 440.83 575.812 440.61 575.659 440.381C572.514 435.681 571.868 429.666 572.297 424.624C571.868 429.664 572.513 435.679 575.657 440.379Z" fill="#B7C0E2"/>
<path d="M576.194 441.124C576.329 441.301 576.465 441.474 576.603 441.64C576.464 441.478 576.329 441.305 576.194 441.124Z" fill="#B7C0E2"/>
<path d="M578.12 411.483L578.085 411.511L578.12 411.483Z" fill="#B7C0E2"/>
<path d="M578.368 443.389C578.435 443.444 578.504 443.497 578.568 443.55C578.504 443.497 578.435 443.444 578.368 443.389Z" fill="#B7C0E2"/>
<path d="M578.95 410.919L578.9 410.948C578.921 410.941 578.936 410.929 578.95 410.919Z" fill="#B7C0E2"/>
<path d="M574.754 415.371L574.742 415.392L574.754 415.371Z" fill="#B7C0E2"/>
<path d="M579.469 444.178L579.439 444.158L579.472 444.178H579.469Z" fill="#B7C0E2"/>
<path d="M574.288 416.257L574.27 416.294L574.288 416.257Z" fill="#B7C0E2"/>
<path d="M578.905 443.799C578.964 443.842 579.025 443.881 579.084 443.922C579.025 443.881 578.964 443.842 578.905 443.799Z" fill="#B7C0E2"/>
<path d="M586.487 444.89L587.821 453.54L583.795 445.614L585.326 444.83L586.119 444.73L586.487 444.89Z" fill="#8F9BC1"/>
<path d="M578.957 410.918C580.028 411.21 581.042 411.681 581.957 412.31C583.601 413.452 585.029 414.877 586.176 416.518C591.713 424.26 590.156 433.946 587.222 439.657C586.059 441.951 583.89 443.569 581.36 444.03C580.737 444.143 580.105 444.191 579.472 444.175C581.584 445.585 584.207 446.003 586.653 445.32C589.099 444.637 591.125 442.92 592.201 440.619C595.28 434.432 597.066 424.019 591.658 415.84C589.776 412.995 586.68 409.931 583.058 409.788C582.149 409.751 581.242 409.899 580.392 410.223C579.893 410.409 579.413 410.642 578.957 410.918Z" fill="#EAF5FF"/>
<path d="M572.295 424.621C571.868 429.667 572.517 435.674 575.659 440.38C575.812 440.608 575.967 440.829 576.132 441.04C576.151 441.071 576.172 441.101 576.195 441.129C576.33 441.302 576.465 441.476 576.601 441.642C576.647 441.698 576.694 441.747 576.74 441.803C576.859 441.937 576.972 442.069 577.086 442.194C577.155 442.263 577.218 442.332 577.286 442.394L577.57 442.694C577.658 442.769 577.738 442.85 577.826 442.925C577.914 443 577.99 443.073 578.065 443.145C578.165 443.224 578.265 443.31 578.365 443.39C578.431 443.446 578.499 443.501 578.565 443.55C578.676 443.64 578.79 443.723 578.899 443.799C578.961 443.846 579.019 443.884 579.083 443.925C579.196 444.008 579.318 444.087 579.436 444.158C579.447 444.169 579.46 444.173 579.464 444.181C580.097 444.197 580.729 444.149 581.352 444.036C580.515 443.267 579.774 442.4 579.145 441.453C574.137 433.963 575.47 423.153 577.382 418.227C578.305 415.859 579.89 413.806 581.949 412.315C581.034 411.685 580.02 411.215 578.949 410.923L578.899 410.95C578.631 411.118 578.368 411.295 578.114 411.489C578.1 411.494 578.088 411.503 578.078 411.513C576.726 412.571 575.593 413.883 574.745 415.375C574.745 415.381 574.734 415.386 574.73 415.399C574.567 415.682 574.416 415.97 574.28 416.255C574.27 416.265 574.264 416.278 574.262 416.292C574.123 416.583 573.993 416.871 573.884 417.157C573.016 419.561 572.481 422.072 572.295 424.621Z" fill="#C9E2F4"/>
<path d="M584.923 458.087C584.923 458.087 583.305 457.55 582.194 460.47C581.128 463.277 582.196 466.446 584.744 468.035C587.188 469.567 589.186 469.571 589.225 465.756C589.314 463.202 588.13 460.77 586.064 459.265C585.589 458.977 585.196 458.571 584.923 458.087Z" fill="#F9BF9D"/>
<path d="M704.179 510.315C704.179 510.315 711.673 525.772 709.846 528.515C708.019 531.258 701.636 521.824 700.817 521.283C699.998 520.742 699.058 523.237 697.822 521.409C696.586 519.581 699.356 515.27 697.474 512.896L704.179 510.315Z" fill="#F9BF9D"/>
<path d="M655.378 464.513L666.796 472.651L673.463 504.609C674.774 506.279 674.941 508.577 673.885 510.419C672.977 512.196 663.497 513.266 653.575 513.675C668.469 512.131 667.722 504.992 664.507 493.92C661.292 482.848 655.378 464.513 655.378 464.513Z" fill="#FF8A5F"/>
<path d="M599.238 486.03C599.493 486.23 605.973 491.16 610.19 485.212C614.49 479.144 624.35 455.001 624.35 455.001L624.584 474.377C624.584 474.377 614.994 488.077 608.975 491.448C606.796 492.669 603.086 489.966 599.238 486.03Z" fill="#FF8A5F"/>
<path d="M632.507 439.646L632.893 442.014C639.068 442.014 641.826 436.22 641.826 436.22C639.412 438.734 635.975 439.998 632.507 439.646Z" fill="#1D164D"/>
<defs>
<linearGradient id="paint0_linear" x1="98.0173" y1="-978.869" x2="-449.943" y2="541.913" gradientUnits="userSpaceOnUse">
<stop stop-color="#6BBC61"/>
<stop offset="1" stop-color="#A7DF63"/>
</linearGradient>
<linearGradient id="paint1_linear" x1="-97143.5" y1="-13614.6" x2="-97137" y2="6336.05" gradientUnits="userSpaceOnUse">
<stop stop-color="#369E5F"/>
<stop offset="1" stop-color="#369E5F" stop-opacity="0.01"/>
</linearGradient>
<linearGradient id="paint2_linear" x1="144.694" y1="705.269" x2="476.374" y2="800.972" gradientUnits="userSpaceOnUse">
<stop stop-color="#DBE42C"/>
<stop offset="1" stop-color="#6AD419"/>
</linearGradient>
<linearGradient id="paint3_linear" x1="88.2706" y1="1655.16" x2="1013.88" y2="1671.6" gradientUnits="userSpaceOnUse">
<stop stop-color="white"/>
<stop offset="1" stop-color="white" stop-opacity="0.01"/>
</linearGradient>
<linearGradient id="paint4_linear" x1="231.543" y1="368.218" x2="267.217" y2="469.845" gradientUnits="userSpaceOnUse">
<stop stop-color="#DBE42C"/>
<stop offset="1" stop-color="#6AD419"/>
</linearGradient>
<linearGradient id="paint5_linear" x1="-5510.51" y1="271.309" x2="-5622.56" y2="267.06" gradientUnits="userSpaceOnUse">
<stop stop-color="#8F5138"/>
<stop offset="1" stop-color="#BA6D4D"/>
</linearGradient>
<linearGradient id="paint6_linear" x1="289.257" y1="158.853" x2="300.475" y2="324.039" gradientUnits="userSpaceOnUse">
<stop stop-color="#6BBC61"/>
<stop offset="1" stop-color="#A7DF63"/>
</linearGradient>
<linearGradient id="paint7_linear" x1="591.952" y1="454.355" x2="612.917" y2="192.846" gradientUnits="userSpaceOnUse">
<stop stop-color="#C7283A"/>
<stop offset="1" stop-color="#EF4B4B"/>
</linearGradient>
<linearGradient id="paint8_linear" x1="370.006" y1="567.644" x2="764.394" y2="608.691" gradientUnits="userSpaceOnUse">
<stop stop-color="white"/>
<stop offset="1" stop-color="white" stop-opacity="0.01"/>
</linearGradient>
<linearGradient id="paint9_linear" x1="511.262" y1="112.602" x2="446.942" y2="110.163" gradientUnits="userSpaceOnUse">
<stop stop-color="#8F5138"/>
<stop offset="1" stop-color="#BA6D4D"/>
</linearGradient>
<linearGradient id="paint10_linear" x1="348.149" y1="364.229" x2="348.149" y2="576.845" gradientUnits="userSpaceOnUse">
<stop stop-color="#FFB965"/>
<stop offset="1" stop-color="#FF8A5F"/>
</linearGradient>
<linearGradient id="paint11_linear" x1="404.956" y1="401.89" x2="365.278" y2="530.067" gradientUnits="userSpaceOnUse">
<stop stop-color="white"/>
<stop offset="1" stop-color="#EAF5FF"/>
</linearGradient>
<linearGradient id="paint12_linear" x1="577.311" y1="364.894" x2="577.311" y2="333.434" gradientUnits="userSpaceOnUse">
<stop stop-color="#1D164D"/>
<stop offset="1" stop-color="#4A4975"/>
</linearGradient>
<linearGradient id="paint13_linear" x1="288.522" y1="316.921" x2="288.522" y2="353.259" gradientUnits="userSpaceOnUse">
<stop stop-color="#FFB965"/>
<stop offset="1" stop-color="#FF8A5F"/>
</linearGradient>
<linearGradient id="paint14_linear" x1="499.713" y1="521.268" x2="812.532" y2="742.282" gradientUnits="userSpaceOnUse">
<stop stop-color="#ACD4F3"/>
<stop offset="1" stop-color="#4099F1"/>
</linearGradient>
<linearGradient id="paint15_linear" x1="971.247" y1="161.13" x2="801.999" y2="161.13" gradientUnits="userSpaceOnUse">
<stop stop-color="#ACD4F3"/>
<stop offset="1" stop-color="#4099F1"/>
</linearGradient>
<linearGradient id="paint16_linear" x1="-1204.9" y1="-378.319" x2="-1208.95" y2="907.298" gradientUnits="userSpaceOnUse">
<stop stop-color="#ACD4F3"/>
<stop offset="1" stop-color="#4099F1"/>
</linearGradient>
<linearGradient id="paint17_linear" x1="152.289" y1="796.193" x2="273.704" y2="645.117" gradientUnits="userSpaceOnUse">
<stop stop-color="#C7283A"/>
<stop offset="1" stop-color="#EF4B4B"/>
</linearGradient>
<linearGradient id="paint18_linear" x1="132.471" y1="764.736" x2="383.846" y2="751.52" gradientUnits="userSpaceOnUse">
<stop stop-color="white"/>
<stop offset="1" stop-color="white" stop-opacity="0.01"/>
</linearGradient>
<linearGradient id="paint19_linear" x1="172.015" y1="600.776" x2="181.112" y2="576.893" gradientUnits="userSpaceOnUse">
<stop stop-color="#6BBC61"/>
<stop offset="1" stop-color="#A7DF63"/>
</linearGradient>
<linearGradient id="paint20_linear" x1="359.062" y1="529.943" x2="396.369" y2="529.943" gradientUnits="userSpaceOnUse">
<stop stop-color="#C9E2F4"/>
<stop offset="1" stop-color="#EAF5FF"/>
</linearGradient>
<linearGradient id="paint21_linear" x1="274.254" y1="403.745" x2="240.796" y2="592.875" gradientUnits="userSpaceOnUse">
<stop stop-color="#ACD4F3"/>
<stop offset="1" stop-color="#4099F1"/>
</linearGradient>
<linearGradient id="paint22_linear" x1="386.841" y1="472.553" x2="389.636" y2="434.004" gradientUnits="userSpaceOnUse">
<stop stop-color="#1D164D"/>
<stop offset="1" stop-color="#4A4975"/>
</linearGradient>
<linearGradient id="paint23_linear" x1="384.058" y1="471.099" x2="370.344" y2="462.2" gradientUnits="userSpaceOnUse">
<stop stop-color="#FFC0AC"/>
<stop offset="1" stop-color="#FFD6C7"/>
</linearGradient>
<linearGradient id="paint24_linear" x1="249.924" y1="843.491" x2="469.168" y2="809.878" gradientUnits="userSpaceOnUse">
<stop stop-color="#1D164D"/>
<stop offset="1" stop-color="#4A4975"/>
</linearGradient>
<linearGradient id="paint25_linear" x1="452.027" y1="697.486" x2="549.376" y2="518.445" gradientUnits="userSpaceOnUse">
<stop stop-color="#C7283A"/>
<stop offset="1" stop-color="#EF4B4B"/>
</linearGradient>
<linearGradient id="paint26_linear" x1="442.817" y1="560.746" x2="447.255" y2="521.092" gradientUnits="userSpaceOnUse">
<stop stop-color="#FFC0AC"/>
<stop offset="1" stop-color="#FFD6C7"/>
</linearGradient>
<linearGradient id="paint27_linear" x1="318.082" y1="701.077" x2="324.743" y2="669.236" gradientUnits="userSpaceOnUse">
<stop stop-color="#FFC0AC"/>
<stop offset="1" stop-color="#FFD6C7"/>
</linearGradient>
<linearGradient id="paint28_linear" x1="373.975" y1="692.482" x2="382.118" y2="672.992" gradientUnits="userSpaceOnUse">
<stop stop-color="#FFC0AC"/>
<stop offset="1" stop-color="#FFD6C7"/>
</linearGradient>
<linearGradient id="paint29_linear" x1="384.442" y1="558.51" x2="409.458" y2="498.466" gradientUnits="userSpaceOnUse">
<stop stop-color="#C9E2F4"/>
<stop offset="1" stop-color="#EAF5FF"/>
</linearGradient>
<linearGradient id="paint30_linear" x1="294.682" y1="690.501" x2="337.267" y2="690.501" gradientUnits="userSpaceOnUse">
<stop stop-color="#1D164D"/>
<stop offset="1" stop-color="#4A4975"/>
</linearGradient>
<linearGradient id="paint31_linear" x1="295.419" y1="1112.07" x2="956.449" y2="1107.01" gradientUnits="userSpaceOnUse">
<stop stop-color="white"/>
<stop offset="1" stop-color="white" stop-opacity="0.01"/>
</linearGradient>
<linearGradient id="paint32_linear" x1="359.279" y1="690.502" x2="401.864" y2="690.502" gradientUnits="userSpaceOnUse">
<stop stop-color="#1D164D"/>
<stop offset="1" stop-color="#4A4975"/>
</linearGradient>
<linearGradient id="paint33_linear" x1="498.054" y1="542.679" x2="499.168" y2="472.016" gradientUnits="userSpaceOnUse">
<stop stop-color="#6BBC61"/>
<stop offset="1" stop-color="#A7DF63"/>
</linearGradient>
<linearGradient id="paint34_linear" x1="659.902" y1="585.989" x2="506.557" y2="540.796" gradientUnits="userSpaceOnUse">
<stop stop-color="#1D164D"/>
<stop offset="1" stop-color="#4A4975"/>
</linearGradient>
<linearGradient id="paint35_linear" x1="557.342" y1="481.711" x2="516.198" y2="444.376" gradientUnits="userSpaceOnUse">
<stop stop-color="#1D164D"/>
<stop offset="1" stop-color="#4A4975"/>
</linearGradient>
<linearGradient id="paint36_linear" x1="650.868" y1="587.392" x2="567.196" y2="470.148" gradientUnits="userSpaceOnUse">
<stop stop-color="#C9E2F4"/>
<stop offset="1" stop-color="#EAF5FF"/>
</linearGradient>
<linearGradient id="paint37_linear" x1="55.5096" y1="3513.23" x2="1339.67" y2="3517.09" gradientUnits="userSpaceOnUse">
<stop stop-color="#FF63DE"/>
<stop offset="1" stop-color="#B122E5"/>
</linearGradient>
<linearGradient id="paint38_linear" x1="541.483" y1="479.713" x2="527.858" y2="469.961" gradientUnits="userSpaceOnUse">
<stop stop-color="#FFC0AC"/>
<stop offset="1" stop-color="#FFD6C7"/>
</linearGradient>
<linearGradient id="paint39_linear" x1="747.955" y1="726.859" x2="752.17" y2="438.834" gradientUnits="userSpaceOnUse">
<stop stop-color="#C9E2F4"/>
<stop offset="1" stop-color="#EAF5FF"/>
</linearGradient>
<linearGradient id="paint40_linear" x1="486.847" y1="548.289" x2="484.732" y2="527.163" gradientUnits="userSpaceOnUse">
<stop stop-color="#FFC0AC"/>
<stop offset="1" stop-color="#FFD6C7"/>
</linearGradient>
<linearGradient id="paint41_linear" x1="512.262" y1="692.812" x2="527.202" y2="692.812" gradientUnits="userSpaceOnUse">
<stop stop-color="#FFC0AC"/>
<stop offset="1" stop-color="#FFD6C7"/>
</linearGradient>
<linearGradient id="paint42_linear" x1="573.086" y1="692.812" x2="592.936" y2="692.812" gradientUnits="userSpaceOnUse">
<stop stop-color="#FFC0AC"/>
<stop offset="1" stop-color="#FFD6C7"/>
</linearGradient>
<linearGradient id="paint43_linear" x1="524.081" y1="699.448" x2="566.666" y2="699.448" gradientUnits="userSpaceOnUse">
<stop stop-color="#1D164D"/>
<stop offset="1" stop-color="#4A4975"/>
</linearGradient>
<linearGradient id="paint44_linear" x1="633.6" y1="699.448" x2="676.185" y2="699.448" gradientUnits="userSpaceOnUse">
<stop stop-color="#1D164D"/>
<stop offset="1" stop-color="#4A4975"/>
</linearGradient>
<linearGradient id="paint45_linear" x1="633.6" y1="699.448" x2="676.185" y2="699.448" gradientUnits="userSpaceOnUse">
<stop stop-color="#1D164D"/>
<stop offset="1" stop-color="#4A4975"/>
</linearGradient>
<linearGradient id="paint46_linear" x1="1204.85" y1="362.166" x2="1104.75" y2="349.659" gradientUnits="userSpaceOnUse">
<stop stop-color="#B7C0E2"/>
<stop offset="1" stop-color="#B7C0E2" stop-opacity="0.01"/>
</linearGradient>
<linearGradient id="paint47_linear" x1="664.188" y1="442.101" x2="653.585" y2="397.095" gradientUnits="userSpaceOnUse">
<stop stop-color="#1D164D"/>
<stop offset="1" stop-color="#4A4975"/>
</linearGradient>
<linearGradient id="paint48_linear" x1="696.893" y1="419.34" x2="641.875" y2="404.724" gradientUnits="userSpaceOnUse">
<stop stop-color="#FFC0AC"/>
<stop offset="1" stop-color="#FFD6C7"/>
</linearGradient>
<linearGradient id="paint49_linear" x1="690.016" y1="656.171" x2="851.592" y2="684.717" gradientUnits="userSpaceOnUse">
<stop stop-color="#1D164D"/>
<stop offset="1" stop-color="#4A4975"/>
</linearGradient>
<linearGradient id="paint50_linear" x1="512.149" y1="832.668" x2="835.45" y2="839.596" gradientUnits="userSpaceOnUse">
<stop stop-color="#1D164D"/>
<stop offset="1" stop-color="#4A4975"/>
</linearGradient>
<linearGradient id="paint51_linear" x1="494.827" y1="445.854" x2="512.241" y2="619.601" gradientUnits="userSpaceOnUse">
<stop stop-color="#FFB965"/>
<stop offset="1" stop-color="#FF8A5F"/>
</linearGradient>
<clipPath id="clip0">
<rect width="62" height="73" fill="white" transform="translate(214.478 290.367)"/>
</clipPath>
<clipPath id="clip1">
<rect width="62" height="25" fill="white" transform="translate(214.478 338.367)"/>
</clipPath>
<clipPath id="clip2">
<rect width="69" height="71" fill="white" transform="translate(333.705 165.429)"/>
</clipPath>
<clipPath id="clip3">
<rect width="36" height="29" fill="white" transform="translate(333.705 207.429)"/>
</clipPath>
<clipPath id="clip4">
<rect width="63" height="76" fill="white" transform="translate(549.218 178.975)"/>
</clipPath>
<clipPath id="clip5">
<rect width="63" height="19" fill="white" transform="translate(549.218 235.975)"/>
</clipPath>
</defs>
</svg>
